<?xml version="1.0" encoding="utf-8"?>
<!-- Generator: Adobe Illustrator 26.4.1, SVG Export Plug-In . SVG Version: 6.00 Build 0)  -->
<svg version="1.1" id="Layer_1" xmlns="http://www.w3.org/2000/svg" xmlns:xlink="http://www.w3.org/1999/xlink" x="0px" y="0px"
	 viewBox="0 0 2411.4 2207.4" style="enable-background:new 0 0 2411.4 2207.4;" xml:space="preserve">
<style type="text/css">
	.st0{display:none;}
	.st1{display:inline;}
	.st2{fill:#BFD3F2;}
	.st3{fill:#1B57B3;}
	.st4{fill:#FF6363;}
	.st5{fill:#FFFFFF;}
	.st6{fill:#1F65CF;}
	.st7{fill:none;stroke:#9FD1FC;stroke-width:2.4056;stroke-miterlimit:10;}
	.st8{fill:#48C6AA;}
	.st9{fill:#D9FFFF;}
	.st10{fill:#C9F5FF;}
	.st11{fill:#453B73;}
	.st12{fill:#48C6C6;}
	.st13{fill:#5C5099;}
	.st14{fill:#9FD1FC;}
	.st15{fill:none;stroke:#FFFFFF;stroke-width:1.3238;stroke-miterlimit:10;}
	.st16{fill:#83C4FC;}
	.st17{clip-path:url(#SVGID_00000129903804597518871050000007019898252621962627_);}
	.st18{fill:#F7A594;}
	.st19{fill:#E6836F;}
	.st20{fill:#002E73;}
	.st21{fill:#231F20;}
	.st22{fill:#73382A;}
	.st23{fill:#FDB477;}
	.st24{fill:#5C2D22;}
	.st25{fill:#FFF890;}
	.st26{fill:#FFDD69;}
	.st27{fill:#F79683;}
	.st28{fill:#5D4F99;}
	.st29{fill:#241F3C;}
	.st30{clip-path:url(#SVGID_00000078036811823734616190000002502374610692613010_);}
	.st31{fill:#7362BF;}
	.st32{fill:#FDFDFF;}
	.st33{fill:#247F7D;}
	.st34{fill:#51DEDE;}
	.st35{fill:#FD9463;}
	.st36{fill:#C9F5F7;}
	.st37{fill:#A5EEF2;}
	.st38{clip-path:url(#SVGID_00000043454577397476806460000008862204604782317696_);}
</style>
<g id="BG" class="st0">
	<g class="st1">
		<g>
			<rect x="466.6" y="43.2" class="st2" width="3500" height="2000"/>
		</g>
		<g>
			<rect x="466.6" y="191.2" class="st3" width="3500" height="1704.1"/>
		</g>
	</g>
</g>
<g>
	<path class="st4" d="M164.2,1211.3l1122.5,934.2c69,57.4,125.6,30.9,125.6-58.9l-4.2-184.6h810.5c53.9-0.1,99-39.1,108.9-90.2
		c1.6-7.5,2.6-15.2,2.6-23.2c0,0,0-873.9,0-935.2V422.9c0-61.2-50.1-111.2-111.3-111.2l-806.6,0V126.9c0-89.8-56.5-116.3-125.6-58.8
		L164.2,1002.2C95.1,1059.6,95.1,1153.7,164.2,1211.3z"/>
	<path class="st5" d="M2330.9,1661c0-49.9-30-63-66.7-29.3c0,0-34.1,31.3-106.2,31.3c-114.7,0-207.7-93-207.7-207.7
		s93-207.6,207.7-207.6c72.1,0,106.2,31.3,106.2,31.3c36.7,33.8,66.7,20.6,66.7-29.3V1661z"/>
</g>
<g id="illutration">
	<g>
		<g>
			<path class="st6" d="M1859.5,1273.8L1859.5,1273.8l-4.9,1.4l-11.8,3.5c-5.2-17.6-13.8-34.4-26.1-49.5l13.6-11
				c-13.5-16.6-29.8-29.9-47.6-39.4l-8.3,15.3c-16.7-9.1-34.9-14.6-53.4-16.6l1.8-17.3c-11.9-1.2-24-1.1-36,0.4
				c-8.6,1.1-17.1,2.8-25.5,5.3l4.9,16.7c-17.6,5.2-34.4,13.8-49.5,26.1l-11-13.5c-16.6,13.5-29.9,29.8-39.4,47.5l15.3,8.3
				c-9.1,16.6-14.6,34.8-16.6,53.4l-17.3-1.8c-2.1,20.5-0.2,41.4,5.7,61.5l0.1,0l11-3.2l5.6-1.6c5.2,17.6,13.9,34.4,26.1,49.5
				l-13.6,11c13.5,16.6,29.7,29.8,47.5,39.4l8.3-15.3c16.7,9.1,34.9,14.6,53.5,16.6l-1.8,17.3c3.4,0.3,6.8,0.6,10.2,0.7
				c17.2,0.7,34.5-1.4,51.3-6.4l-1.1-3.7l-3.8-13c17.6-5.2,34.4-13.9,49.5-26.1l11,13.5c16.6-13.5,29.8-29.7,39.4-47.5l-15.3-8.3
				c9.1-16.7,14.7-34.9,16.6-53.5l17.3,1.8C1867.3,1314.9,1865.5,1293.9,1859.5,1273.8z M1675.5,1344.2
				c-13.9-17.1-11.3-42.2,5.8-56.1c5.7-4.7,12.3-7.5,19.1-8.5c13.5-2.1,27.8,2.9,37,14.2c6.6,8.1,9.5,18,8.9,27.7
				c-0.7,10.7-5.7,21.1-14.7,28.4C1714.6,1363.9,1689.5,1361.3,1675.5,1344.2z"/>
		</g>
		<g>
			<path class="st7" d="M779.5,964.3c5.5,6.8,12.1,12.2,19.4,16.1l3.4-6.3c6.8,3.7,14.3,6,21.9,6.8l-0.7,7.1
				c8.4,0.9,16.9,0.1,25.1-2.3l-0.4-1.5l-1.6-5.3c7.2-2.1,14.1-5.7,20.2-10.7l4.5,5.5c6.8-5.5,12.2-12.1,16.1-19.4l-6.3-3.4
				c3.7-6.8,6-14.3,6.8-21.8l7.1,0.7c0.9-8.4,0.1-16.9-2.3-25.1l0,0l-2,0.6l-4.8,1.4c-2.1-7.2-5.6-14-10.7-20.2l5.5-4.5
				c-5.5-6.8-12.2-12.2-19.4-16.1l-3.4,6.3c-6.8-3.7-14.2-6-21.8-6.8l0.7-7.1c-8.4-0.9-16.9-0.1-25.1,2.3l2,6.8
				c-7.2,2.1-14,5.6-20.2,10.7l-4.5-5.5c-6.8,5.5-12.2,12.2-16.1,19.4l6.3,3.4c-3.7,6.8-6,14.2-6.8,21.8l-7.1-0.7
				c-0.9,8.4-0.1,16.9,2.3,25.1l0.1,0l4.5-1.3l2.3-0.7c2.1,7.2,5.7,14.1,10.7,20.2L779.5,964.3z M808,941.2
				c-10-12.3-8.1-30.3,4.1-40.2c12.3-10,30.3-8.1,40.3,4.1c10,12.3,8.1,30.3-4.1,40.3C836,955.3,817.9,953.5,808,941.2z"/>
		</g>
		<g>
			<g>
				<g>
					<path class="st8" d="M1083.7,683.6c1.8,6.9,4.9,13.2,9,18.6l4.7-3.5c3.8,5.1,8.6,9.3,14,12.5l-2.9,5c5.9,3.5,12.5,5.8,19.5,6.8
						l0.2-1.3l0.6-4.5c6.1,0.9,12.4,0.6,18.7-1.1l1.5,5.6c6.9-1.8,13.2-4.9,18.6-9l-3.5-4.7c5.1-3.8,9.3-8.6,12.5-14l5,2.9
						c3.5-5.9,5.8-12.6,6.8-19.5l0,0l-1.7-0.3l-4.1-0.6c0.9-6.1,0.6-12.4-1.1-18.7l5.6-1.5c-1.8-6.9-4.9-13.2-9-18.6l-4.7,3.5
						c-3.8-5.1-8.6-9.3-13.9-12.4l2.9-5c-5.9-3.5-12.6-5.8-19.5-6.8l-0.8,5.8c-6.1-0.9-12.4-0.6-18.7,1.1l-1.5-5.6
						c-6.9,1.8-13.2,4.9-18.6,9l3.5,4.7c-5.1,3.8-9.3,8.6-12.4,13.9l-5-2.9c-3.5,5.9-5.8,12.6-6.8,19.5l0,0l3.8,0.5l1.9,0.3
						c-0.9,6.1-0.6,12.4,1.1,18.7L1083.7,683.6z"/>
				</g>
				<g>
					<g>
						<g>
							<g>
								<path class="st9" d="M1156.4,651.6L1156.4,651.6c0-0.1,0-0.1,0-0.1C1156.4,651.5,1156.4,651.6,1156.4,651.6z"/>
								<path class="st9" d="M1156.4,651.6L1156.4,651.6c0-0.1,0-0.1,0-0.1C1156.4,651.5,1156.4,651.6,1156.4,651.6z"/>
								<path class="st9" d="M1112.9,652c0,0,0-0.1,0-0.1C1112.9,651.9,1112.9,652,1112.9,652L1112.9,652z"/>
								<path class="st9" d="M1112.9,652c0,0,0-0.1,0-0.1C1112.9,651.9,1112.9,652,1112.9,652L1112.9,652z"/>
								<path class="st5" d="M1113,653.3c0,2,0.1,6.6,0.2,17.2c0.2,19.6,19.3,29,22.1,30.3c2.9-1.5,21.6-11.2,21.4-30.8
									c-0.1-9.8-0.2-14.5-0.2-16.7l-21.7-8.9L1113,653.3z"/>
							</g>
						</g>
					</g>
					<g>
						<path class="st8" d="M1125.9,667.6l0.1,12.9c0,1.4,17.6,1.3,17.6-0.1l-0.1-12.9L1125.9,667.6z M1132.6,672.4
							c0-1.2,1-2.2,2.2-2.2c1.2,0,2.2,0.9,2.2,2.1c0,0.9-0.5,1.6-1.3,2l0,3.7c0,0.5-0.4,0.9-0.9,0.9c-0.5,0-0.9-0.4-0.9-0.9l0-3.6
							C1133.1,674,1132.6,673.3,1132.6,672.4z"/>
						<path class="st8" d="M1127.4,666.7l1.8,0l0-0.9c0-3,2.4-5.5,5.4-5.5c3,0,5.5,2.4,5.5,5.4l0,0.9l1.8,0l0-0.9
							c0-4-3.3-7.2-7.3-7.2c-4,0-7.2,3.3-7.2,7.3L1127.4,666.7z"/>
					</g>
				</g>
			</g>
			<g id="cloud_4_">
				<path class="st10" d="M1105.3,707.1c0.5-3.7,0.8-7.4,0.8-11.2c0-45.7-37-82.7-82.7-82.7c-34.3,0-63.6,20.8-76.2,50.5
					c-10.2-9.1-23.6-14.7-38.4-14.7c-31.9,0-57.8,25.9-57.8,57.8h-10.8c-30.7,0-55.8,25.1-55.8,55.8v0c0,30.7,25.1,55.8,55.8,55.8
					h260.8c30.7,0,55.8-25.1,55.8-55.8v0C1157,733.3,1134.1,709.2,1105.3,707.1z"/>
			</g>
			<g>
				<rect x="951.5" y="689.1" class="st11" width="117.1" height="105.9"/>
				<g>
					<rect x="946.6" y="689.1" class="st12" width="127" height="32"/>
					<g>
						<rect x="1055.6" y="697.3" class="st11" width="12.6" height="16.9"/>
						<rect x="1036.8" y="697.3" class="st11" width="12.6" height="16.9"/>
						<rect x="1017.9" y="697.3" class="st11" width="12.6" height="16.9"/>
					</g>
				</g>
				<g>
					<rect x="946.6" y="727.1" class="st12" width="127" height="32"/>
					<g>
						<rect x="1055.6" y="735.2" class="st11" width="12.6" height="16.9"/>
						<rect x="1036.8" y="735.2" class="st11" width="12.6" height="16.9"/>
						<rect x="1017.9" y="735.2" class="st11" width="12.6" height="16.9"/>
					</g>
				</g>
				<g>
					<rect x="946.6" y="765" class="st12" width="127" height="32"/>
					<g>
						<rect x="1055.6" y="773.2" class="st11" width="12.6" height="16.9"/>
						<rect x="1036.8" y="773.2" class="st11" width="12.6" height="16.9"/>
						<rect x="1017.9" y="773.2" class="st11" width="12.6" height="16.9"/>
					</g>
				</g>
			</g>
			<g>
				<g>
					<rect x="901.2" y="728" class="st13" width="19.6" height="37.3"/>
					<polygon class="st13" points="911.1,778.5 893.8,758 928.1,758 					"/>
				</g>
				<g>
					<rect x="870.5" y="741.4" class="st13" width="19.6" height="37.3"/>
					<polygon class="st13" points="880.1,728.2 897.4,748.8 863.1,748.8 					"/>
				</g>
			</g>
		</g>
		<g id="cloud_3_">
			<path class="st10" d="M1335.5,728c0.1-1.1,0.2-2.1,0.2-3.2c0-13.2-10.7-24-24-24c-9.9,0-18.4,6-22.1,14.6
				c-3-2.6-6.8-4.2-11.1-4.2c-9.2,0-16.7,7.5-16.7,16.7h-3.1c-8.9,0-16.2,7.3-16.2,16.2l0,0c0,8.9,7.3,16.2,16.2,16.2h75.6
				c8.9,0,16.2-7.3,16.2-16.2l0,0C1350.5,735.6,1343.9,728.6,1335.5,728z"/>
		</g>
		<g>
			<g>
				<path class="st14" d="M1686.2,1321.6l-13.9-1.5l-34.1-3.5c5.2-50.6,0.6-103.1-15.1-154.9l46.5-14.1
					c-17.3-57.1-45.2-108.2-80.9-151.6l-37.6,30.7c-33.3-41.1-74.3-74.4-120.1-98.9l22.8-42.7c-50.5-27-106.4-44.2-164.3-50.1
					l-5,48.3c-29.3-3-59.2-2.7-89.2,1.1c-21.9,2.8-43.8,7.4-65.7,14.1l-14.1-46.5c-9.7,2.9-19.2,6.2-28.5,9.7
					c-45.7,17.3-87.1,41.5-123.1,71.2l30.7,37.6c-39.8,32.2-72.3,71.8-96.6,115.8c-0.8,1.4-1.6,2.8-2.3,4.3l-8-4.3l-34.7-18.5
					c-3.3,6.1-6.4,12.3-9.4,18.5c-21.7,45.5-35.6,94.8-40.7,145.8l0.4,0.1l31.8,3.2l16.1,1.7c-1,9.4-1.6,18.8-1.9,28.3
					c-0.6,20.5,0.4,41.3,3.1,62c2.8,21.5,7.4,43.1,13.9,64.5l-34.2,10.4l-12.3,3.7c3.6,12,7.7,23.7,12.3,35.1
					c7.1,17.8,15.2,34.9,24.3,51.3c12.9,23.2,27.7,45,44.1,65.1l37.6-30.7c33.4,41,74.6,74.5,120.3,99.1l-22.8,42.7
					c50.5,27,106.2,44.3,164.1,50.1l1.2-10.7l3.8-37.5c50.6,5.2,103.3,0.6,155-15.2l14.1,46.5c57.1-17.3,108.1-45.1,151.5-80.8
					l-30.7-37.6c41.1-33.3,74.5-74.4,99.1-120.1l42.7,22.8c27-50.5,44.2-106.4,50.1-164.3L1686.2,1321.6z M1444.7,1355
					c-23.1,59.1-72.2,107.3-137.6,127.2c-113.4,34.5-233.3-29.5-267.8-143.1c-4.6-15-7.4-30.1-8.6-45.1
					c-8.1-98.5,53.1-192.7,151.6-222.6c28.1-8.5,56.5-11,84-8.3c35.5,3.6,69.3,15.9,98.4,35.5c39.6,26.6,70.6,66.5,85.5,115.6
					C1464.7,1262.3,1461.7,1311.6,1444.7,1355z M1686.2,1321.6l-13.9-1.5l-34.1-3.5c5.2-50.6,0.6-103.1-15.1-154.9l46.5-14.1
					c-17.3-57.1-45.2-108.2-80.9-151.6l-37.6,30.7c-33.3-41.1-74.3-74.4-120.1-98.9l22.8-42.7c-50.5-27-106.4-44.2-164.3-50.1
					l-5,48.3c-29.3-3-59.2-2.7-89.2,1.1c-21.9,2.8-43.8,7.4-65.7,14.1l-14.1-46.5c-9.7,2.9-19.2,6.2-28.5,9.7
					c-45.7,17.3-87.1,41.5-123.1,71.2l30.7,37.6c-39.8,32.2-72.3,71.8-96.6,115.8c-0.8,1.4-1.6,2.8-2.3,4.3l-8-4.3l-34.7-18.5
					c-3.3,6.1-6.4,12.3-9.4,18.5c-21.7,45.5-35.6,94.8-40.7,145.8l0.4,0.1l31.8,3.2l16.1,1.7c-1,9.4-1.6,18.8-1.9,28.3
					c-0.6,20.5,0.4,41.3,3.1,62c2.8,21.5,7.4,43.1,13.9,64.5l-34.2,10.4l-12.3,3.7c3.6,12,7.7,23.7,12.3,35.1
					c7.1,17.8,15.2,34.9,24.3,51.3c12.9,23.2,27.7,45,44.1,65.1l37.6-30.7c33.4,41,74.6,74.5,120.3,99.1l-22.8,42.7
					c50.5,27,106.2,44.3,164.1,50.1l1.2-10.7l3.8-37.5c50.6,5.2,103.3,0.6,155-15.2l14.1,46.5c57.1-17.3,108.1-45.1,151.5-80.8
					l-30.7-37.6c41.1-33.3,74.5-74.4,99.1-120.1l42.7,22.8c27-50.5,44.2-106.4,50.1-164.3L1686.2,1321.6z M1444.7,1355
					c-23.1,59.1-72.2,107.3-137.6,127.2c-113.4,34.5-233.3-29.5-267.8-143.1c-4.6-15-7.4-30.1-8.6-45.1
					c-8.1-98.5,53.1-192.7,151.6-222.6c28.1-8.5,56.5-11,84-8.3c35.5,3.6,69.3,15.9,98.4,35.5c39.6,26.6,70.6,66.5,85.5,115.6
					C1464.7,1262.3,1461.7,1311.6,1444.7,1355z"/>
				<path class="st15" d="M1618.8,1332.3l1.8-17.6c1.3-12.6,2-25.4,2-38.1c0-37-5.5-74-16.4-109.8l-5.1-16.9l46.1-14
					c-14.5-41.7-35.1-80.2-61.3-115l-37.4,30.5l-11.1-13.8c-31.3-38.6-69.9-70.4-114.7-94.5l-15.5-8.3l22.6-42.3
					c-39.5-19.1-81.3-31.8-124.5-38l-4.9,47.9l-17.6-1.8c-12.6-1.3-25.4-2-38.1-2c-15.6,0-31.5,1-47,3c0,0,0,0-0.1,0
					c-21.1,2.7-42.2,7.2-62.7,13.4l-16.9,5.1l-14-46.1c-3.6,1.2-7.1,2.5-10.6,3.9c-1.3,0.5-2.5,1-3.8,1.5
					c-36.2,14.1-69.9,32.9-100.5,55.9l30.5,37.4l-13.8,11.1c-34.9,28.3-64.3,62.6-87.4,102.1c-2.4,4.2-4.8,8.4-7.1,12.6l-8.3,15.5
					l-42.4-22.6c-19,39.3-31.8,81.1-38,124.6l14.3,1.5l33.6,3.5l-1.8,17.6c-0.9,8.8-1.5,17.6-1.8,26.5c-0.1,3.9-0.2,7.8-0.2,11.6
					c0,16,1.1,32.2,3.1,48.1c2.7,20.7,7.2,41.5,13.3,61.7l5.1,16.9l-46.1,14c2,5.7,4.1,11.3,6.3,16.9c6.7,16.8,14.5,33.4,23.3,49.3
					c9.4,16.9,19.9,33.2,31.5,48.6l37.4-30.4l11.1,13.7c31.6,38.8,70.3,70.7,115,94.7l15.5,8.3l-22.6,42.4
					c39.6,19.1,81.3,31.9,124.4,38l4.9-47.9l17.6,1.8c12.6,1.3,25.4,1.9,38,1.9c37.1,0,74.2-5.5,110.1-16.5l16.9-5.1l14,46.2
					c41.6-14.5,80-35,114.8-61.2l-30.5-37.4l13.8-11.1c38.8-31.4,70.6-70,94.7-114.8l8.3-15.5l42.4,22.6
					c19.1-39.5,31.8-81.3,38-124.6L1618.8,1332.3z M1461.1,1361.4c-26.1,66.7-80.4,116.9-148.9,137.7c-22,6.7-44.8,10.1-67.6,10.1
					c-102.9,0-192.2-66.3-222.2-165c-4.8-15.9-8-32.3-9.3-48.8c-0.2-2.7-0.4-5.5-0.5-8.2c-0.2-3.5-0.2-7.1-0.2-10.6
					c0-102.9,66.2-192.2,164.8-222.1c22.1-6.7,44.9-10.1,67.8-10.1c0.6,0,1.3,0,1.9,0c7,0.1,14.2,0.4,21.2,1.1
					c37.9,3.8,74.7,17.1,106.5,38.4c4.1,2.8,8.1,5.6,12,8.6c38.1,29.4,66.5,70.2,80.6,116.5c6.7,22.1,10.1,44.9,10.1,67.8
					c0,26.7-4.6,52.9-13.6,78.1C1462.8,1357.1,1461.9,1359.3,1461.1,1361.4z"/>
				<path class="st16" d="M1266.2,1063.1c-27.5-2.8-55.9-0.2-84,8.3c-98.4,29.9-159.6,124.1-151.6,222.6
					c-17.8-5.8-30.2-11.8-35.2-17.6c-38.8-45.1,37.9-234.3,55-258.7c17.1-24.3,80.2-37,80.2-37s0-14.4-1.8-42.4
					c-12.6,0-26.1-32.4-26.1-32.4l-12.6-21.6l-3.1-22.9c9.3-3.5,18.8-6.8,28.5-9.7l14.1,46.5c21.8-6.6,43.8-11.3,65.7-14.1
					l16.4,126.3L1266.2,1063.1z"/>
				<path class="st16" d="M1541.6,1333.2c-5,4.5-48.6,24.6-96.9,21.8c17-43.4,20.1-92.6,5.4-140.7c-14.9-49.2-45.9-89.1-85.5-115.6
					l116.6-32.2c0,0,82.9-0.9,93.7,15.3C1585.8,1097.9,1561.4,1315.1,1541.6,1333.2z"/>
			</g>
			<g>
				<g>
					<defs>
						<path id="SVGID_1_" d="M1625,583.4H908.4V1327h130c22.6,92.9,106.4,161.8,206.2,161.8s183.6-68.9,206.2-161.8H1625L1625,583.4
							L1625,583.4z"/>
					</defs>
					<clipPath id="SVGID_00000047055980927688113780000004038684026764907670_">
						<use xlink:href="#SVGID_1_"  style="overflow:visible;"/>
					</clipPath>
					<g style="clip-path:url(#SVGID_00000047055980927688113780000004038684026764907670_);">
						<path class="st18" d="M1305.3,1010.3l117.3,63.8l59.7-147.5l30.7,7.7c0,0-19.9,171.3-51.8,202.7s-194.7-37.7-194.7-37.7
							C1226.4,1073.7,1262.8,992.8,1305.3,1010.3z"/>
						<g>
							<path class="st18" d="M1480,948.1c0,0-10-32.9-7.6-41.4c2.4-8.5,35.3-16.7,36.5-12.7s3.7,13.7-17.7,17.5
								C1504,925.7,1517.3,952.8,1480,948.1z"/>
							<g>
								<path class="st18" d="M1478.2,949.4c0,0,0-28.8,5.7-39.9c7.6-14.7,26.7-22.9,26.7-22.9s29.9,28.3,30.5,33
									c0.6,4.7-28.9,30.2-28.9,30.2S1490.5,967,1478.2,949.4z"/>
								<path class="st18" d="M1485.5,912.3c0,0,14.5-70.6,25.5-67.5c5.1,1.4-8.5,68.9-8.5,68.9L1485.5,912.3z"/>
								<path class="st19" d="M1477.2,938.8c0.1,0,0.2,0,0.2,0c0.2-0.1,0.3-0.3,0.3-0.5c-2.5-9.6-6.4-26.5-5-31.5
									c1.8-6.5,23.5-13.4,32.6-13.5c2.7,0,3.1,0.6,3.2,0.8c0.8,2.6,1.4,5.7-0.5,8.8c-2.4,3.9-8.1,6.6-16.9,8.2l-0.7,0.1l0.5,0.5
									c5.3,5.9,11.5,14.9,12.8,22.7c0,0.2,0.2,0.3,0.4,0.3c0.2,0,0.3-0.2,0.3-0.4c-1.3-7.7-7.3-16.6-12.6-22.6
									c8.7-1.6,14.3-4.4,16.7-8.4c2.3-3.8,1.1-7.8,0.6-9.5c-0.3-0.9-1.6-1.3-3.9-1.3c-9.2,0.1-31.3,7-33.3,14
									c-1.4,5.1,2.5,22.2,5,31.9C1477,938.7,1477.1,938.8,1477.2,938.8z"/>
								<path class="st19" d="M1517.3,928.9c0.1,0,0.2,0.1,0.3,0.1l0.3,0.1l0.2-0.2c5.2-6.8,16.4-8.7,16.6-8.7
									c0.2,0,0.4-0.2,0.3-0.4c0-0.2-0.2-0.4-0.4-0.3c-0.5,0.1-11.4,1.9-16.9,8.8c0,0,0,0,0,0c-6.7-2.6-14.8-19.7-14.9-19.9
									c-0.1-0.2-0.3-0.3-0.5-0.2s-0.3,0.3-0.2,0.5C1502.3,909.3,1510.3,926.1,1517.3,928.9z"/>
							</g>
						</g>
						<path class="st20" d="M1283.9,1002.8c0,0,24.6,3.3,83.5,40.9c-6.5,25.4-26.2,91.7-26.2,91.7s-90.1-27.8-102.3-58.1
							S1239.6,990.5,1283.9,1002.8z"/>
						<g>
							<g>
								<path class="st21" d="M996.2,2035.1h93.1c1.9-1.1,3.3-2.3,4.2-3.7c4.8-69.2,11.7-102.6,11.7-102.6l-64.8-2.6l-14.7,51.5
									C1003.9,1992.5,978,2024.3,996.2,2035.1z"/>
								<path class="st21" d="M1096.3,2036.3H986c-2.8,0-1.9-15.3,0.9-15.3l109.7,0.6C1099.5,2021.6,1099.2,2036.3,1096.3,2036.3z"
									/>
							</g>
							<path class="st20" d="M1134.8,1297.8c-32.4,49.9-56.1,290.9-100.8,653.9l66.1,3.5c19.8-96.7,42.2-145.7,65-285
								c54.4-123,82.7-239.5,97.1-359.5C1276.2,1220.2,1165.2,1172.7,1134.8,1297.8z"/>
						</g>
						<g>
							<path class="st20" d="M1212.9,1315c4.7,176.5,36.1,326.4,36.1,326.4c7.2,147.8,17,142.9,30.7,315.1l59.7-0.8
								c5-73.8,44.8-417.9,13.9-638.8C1338.4,1217.5,1203.4,1184.6,1212.9,1315z"/>
							<path class="st21" d="M1279.7,1956.5c-5.3,28.5-9.1,50.8-6.9,76.6l144.6,2.8c0,0,14.3-13.9-3.7-34.9
								c-18-20.9-52.2-8.8-74.3-45.3L1279.7,1956.5z"/>
							<path class="st21" d="M1424,2036.3h-153.6c-2.8,0-2.1-15.3,0.7-15.3l153,0.6C1426.9,2021.6,1426.8,2036.3,1424,2036.3z"/>
						</g>
						<path class="st20" d="M1348.9,1306.6c0,30.5-216.8,21.7-216.8-8.8c-12.4-266.4-76.8-239.1-60.3-266
							c28.4-46.2,171.8-43.6,223.5-23.7c20.5,7.9,48,40,56.9,91.3c4.5,26.3-14.9,57-17.9,78.3
							C1327.1,1227,1347.4,1299.5,1348.9,1306.6z"/>
						<path class="st18" d="M1213.8,1029.1c-36.6,5.3-59.4-20.2-64.7-30.9l2.6-74.1l41.9-4.1c12.2,1,24.3,3.9,34.8,8.1l9.4,48.8
							l2.1,10.6C1244.6,997.8,1250.4,1023.7,1213.8,1029.1z"/>
						<path class="st19" d="M1165.7,940.9c6.6,10.1,34.1,36.1,72.1,36l-8.2-42.2L1165.7,940.9z"/>
						<g>
							<g>
								<path class="st18" d="M1258.6,843.3c3.3,14.6,10.1,46.6,9,61.4c-1.7,22.5-22.7,47.4-41,50.6c-21.2,2.2-49.7-4.1-65.2-17.5
									c-8.6-10.1-25.3-34.1-33-55.1c-16-43.8,14.9-82.2,54.2-91.1C1221.8,782.9,1248.3,797.8,1258.6,843.3z"/>
								<path class="st22" d="M1141.5,911.7c-8.2-14.4,2.7-20.2,14.6-9.1c-2-10.9-14.4-42.7-3.5-53.3c12.4-12.3,67-6.9,96.3-37.5
									c0,0-21.8-47.9-93.6-19.6C1074.4,835.2,1141.5,911.7,1141.5,911.7z"/>
								
									<ellipse transform="matrix(0.7691 -0.6391 0.6391 0.7691 -316.011 938.5503)" class="st18" cx="1141" cy="906.6" rx="13.7" ry="17.7"/>
							</g>
						</g>
						<path class="st23" d="M1086.7,1016.8c24.4-2.9,48.3,114.7,31.5,147c0,2.4-0.1,4.8-0.1,7.2c-0.2,9.2-0.4,18.7-0.7,28.2
							c-0.1,4.2-0.3,8.5-0.4,12.8c-0.3,9.4-0.7,18.9-1.1,28.3c-3,72.7-7.5,140.5-7.5,140.5h253.9c-2-49.9-9.3-101-14.3-140.5
							c-1.3-10.3-2.4-19.8-3.3-28.3c-0.5-4.6-0.8-8.8-1.1-12.8c-0.6-9.4-0.6-16.9,0.2-22c0.3-1.8,0.5-3.9,0.6-6.2
							c1.3-37.1-23.1-145-41.2-164.5c-25.3-11.7-53.6-8.9-53.6-8.9c1.8,52.9-19.3,100.4-19.3,100.4s-53.8-46.1-83.1-101
							C1121.5,1001.2,1098,1006.4,1086.7,1016.8z"/>
						<path class="st5" d="M1343.6,1199.3c-0.6-9.4-0.6-16.9,0.2-22c0.3-1.8,0.5-3.9,0.6-6.2H1118c-0.2,9.2-0.4,18.7-0.7,28.2
							H1343.6z"/>
						<path class="st5" d="M1115.9,1240.3h232.1c-1.3-10.3-2.4-19.8-3.3-28.3h-227.8C1116.6,1221.5,1116.2,1230.9,1115.9,1240.3z"/>
						<path class="st24" d="M1240.5,818.5c0,0,22.4,9.7,45.6,0.3c-3.5,15.9-116,39.5-130.5,33.3
							C1141.3,845.9,1209.9,811.7,1240.5,818.5z"/>
						<path class="st25" d="M1116.1,870.9c-3.1-22.9-6.7-81.6,45.3-96.7c46.2-13.4,79.4,14.4,95,32.7c6.8,1,25-3.9,28.3-0.1
							c0.8,2.3,0,6.6-18.5,14c0.1,0.1,0.1,0.2,0.1,0.2c-67.1,14.7-124.4,33.5-148.6,65.7c0,0-4.3,2-6.9,2
							C1108.6,888.6,1114.1,879.6,1116.1,870.9z"/>
						<path class="st26" d="M1208.5,822c0,0-21.1-49.8-71.2-36.5l-1-2.1c0,0,12.6-7.9,26.9-12.2c15.8-2.5,52.5,3.6,73.6,42.1
							C1226,818.8,1208.5,822,1208.5,822z"/>
						<g>
							<path class="st27" d="M1121.8,1151.3l-31.1,86.5l134.1,85.1l-2.7,30.3c0,0-180.2-37.4-196.9-79.1
								c-16.7-41.7,39.1-220.1,39.1-220.1C1083.4,1008.4,1116.3,1113.3,1121.8,1151.3z"/>
							<path class="st27" d="M1224.3,1324.9l70.5,1.8c0,0-21.7,34.7-70.9,28.4C1159,1346.7,1184.7,1322.1,1224.3,1324.9z"/>
							<g>
								<path class="st28" d="M1511.2,1316.9v3.7c0,0.2,0,0.4,0,0.6c-0.4,2.4-3.2,4.2-6.7,4.2h-308.3c-3.4,0-6.3-1.8-6.7-4.2
									c0-0.2,0-0.4,0-0.6v-3.7H1511.2z"/>
								<path class="st29" d="M1511.2,1321.1c-0.4,2.4-3.2,4.2-6.7,4.2h-308.3c-3.4,0-6.3-1.8-6.7-4.2H1511.2z"/>
								<g>
									<polygon class="st29" points="1547,1106.1 1548.8,1107.8 1547.8,1109.2 1545.5,1106 									"/>
									<path class="st28" d="M1506.7,1316.3h-250.1c-4.3,0-7.1-3.5-6.4-7.7l33-196.7c0.7-4.3,4.8-7.7,9-7.7h250.1
										c4.3,0,7.1,3.5,6.4,7.7l-33,196.7C1515,1312.9,1511,1316.3,1506.7,1316.3z"/>
								</g>
								<path class="st29" d="M1508.5,1318.1h-250.1c-4.3,0-7.1-3.5-6.4-7.7l33-196.7c0.7-4.3,4.8-7.7,9-7.7h250.1
									c4.3,0,7.1,3.5,6.4,7.7l-33,196.7C1516.8,1314.7,1512.8,1318.1,1508.5,1318.1z"/>
								
									<ellipse transform="matrix(0.1144 -0.9934 0.9934 0.1144 33.9279 2472.938)" class="st8" cx="1404" cy="1217.4" rx="34.3" ry="33"/>
							</g>
						</g>
						<path class="st20" d="M1119.8,1162.8l-86.4-42.7c0,0,24-85.2,51.2-101.5c13.3,8,26.5,27,33.8,59.9
							C1124.7,1107,1124.8,1136.1,1119.8,1162.8z"/>
						<path class="st22" d="M1229.9,898.3c0.1,0,0.1,0,0.2,0c0.4-0.1,9.2-1.9,12.1-6.6c2.8-4.6-15.6-23.1-21.3-28.7
							c-0.3-0.3-0.9-0.3-1.2,0c-0.3,0.3-0.3,0.9,0,1.2c11.2,10.9,22.5,24.2,21.1,26.5c-2.4,4-10.8,5.8-10.9,5.8
							c-0.5,0.1-0.8,0.5-0.7,1C1229.1,898,1229.5,898.3,1229.9,898.3z"/>
						<path class="st22" d="M1215.4,918.6c14.7,0,27.1-5.1,27.3-5.1c0.4-0.2,0.7-0.7,0.5-1.1c-0.2-0.4-0.7-0.7-1.1-0.5
							c-0.3,0.1-31.6,12.9-53.3-2.8c-0.4-0.3-0.9-0.2-1.2,0.2c-0.3,0.4-0.2,0.9,0.2,1.2C1196.4,916.7,1206.4,918.6,1215.4,918.6z"/>
						<path class="st24" d="M1237.3,856c0.8,3.4,3,5.8,4.9,5.4s2.8-3.6,2.1-7c-0.8-3.4-3-5.8-4.9-5.4
							C1237.4,849.5,1236.5,852.6,1237.3,856z"/>
						<path class="st24" d="M1181.6,871.2c1.2,3.7,3.8,6.1,5.9,5.4c2.1-0.7,2.8-4.2,1.6-7.8c-1.2-3.7-3.8-6.1-5.9-5.4
							C1181.1,864.1,1180.4,867.6,1181.6,871.2z"/>
					</g>
				</g>
				<g>
					<defs>
						<path id="SVGID_00000060016497574817700320000001144865067539972025_" d="M1625,583.4H908.4V1327h130
							c22.6,92.9,106.4,161.8,206.2,161.8s183.6-68.9,206.2-161.8H1625L1625,583.4L1625,583.4z"/>
					</defs>
					<clipPath id="SVGID_00000019642081656243228850000006258849289158646452_">
						<use xlink:href="#SVGID_00000060016497574817700320000001144865067539972025_"  style="overflow:visible;"/>
					</clipPath>
					<g style="clip-path:url(#SVGID_00000019642081656243228850000006258849289158646452_);">
						<g>
							<path class="st10" d="M1521.5,831c-4.1,2.4-9.4,0.9-11.8-3.2c-2.4-4.1-1-9.3,3.1-11.7s9.4-0.9,11.8,3.2
								S1525.6,828.6,1521.5,831z"/>
							<g>
								<path class="st10" d="M1556.1,803.9L1556.1,803.9c1.3-0.8,1.6-2.5,0.8-3.8c-14.7-22.5-43.3-29.4-66.7-16.1
									c-1.3,0.7-1.7,2.4-1,3.7l0,0c0.8,1.3,2.5,1.8,3.8,1.1c20.7-11.6,46-5.5,59.2,14.3C1553.1,804.5,1554.8,804.8,1556.1,803.9z"
									/>
								<path class="st10" d="M1546.5,810.3L1546.5,810.3c1.3-0.9,1.6-2.6,0.8-3.9c-11.5-16.9-33.2-22.2-51.2-12.4
									c-1.4,0.7-1.8,2.4-1.1,3.8l0,0c0.7,1.3,2.4,1.8,3.7,1.1c15.4-8.2,34-3.7,44,10.7C1543.5,810.8,1545.2,811.1,1546.5,810.3z"
									/>
								<path class="st10" d="M1537.1,816.5L1537.1,816.5c1.3-0.9,1.7-2.6,0.7-3.9c-8.4-11.6-23.5-15.2-36.3-8.8
									c-1.4,0.7-1.9,2.4-1.1,3.8l0,0c0.7,1.3,2.3,1.8,3.7,1.1c10.3-4.9,22.3-2,29.2,7.1C1534.2,817,1535.9,817.3,1537.1,816.5z"/>
							</g>
						</g>
					</g>
				</g>
			</g>
			<path class="st16" d="M1006.1,1338.3V1481c0,6.1-5,11.1-11.1,11.1H856.2c-9.1-16.4-17.2-33.5-24.3-51.3v-38.8l34.2-10.4
				c-6.5-21.4-11.1-43-13.9-64.5H995C1001.2,1327.2,1006.1,1332.1,1006.1,1338.3z"/>
			<path class="st16" d="M962,1103.8v143.7c0,9.8-7.9,17.7-17.7,17.7h-95.1c0.3-9.5,0.9-18.9,1.9-28.3l-16.1-1.7l-31.8-3.2l-0.4-0.1
				c5.2-51,19-100.3,40.7-145.8h100.8C954,1086,962,1094,962,1103.8z"/>
		</g>
		<g>
			<g>
				<path class="st10" d="M911.1,1244.2H717.6c-9.8,0-17.7-7.9-17.7-17.7v-143.6c0-9.8,7.9-17.7,17.7-17.7h193.5
					c9.8,0,17.7,7.9,17.7,17.7v143.6C928.8,1236.3,920.9,1244.2,911.1,1244.2z"/>
				<path class="st5" d="M903,1116.3H727.8c-0.2,0-0.4-0.2-0.4-0.4c0-0.2,0.2-0.4,0.4-0.4H903c0.2,0,0.4,0.2,0.4,0.4
					S903.3,1116.3,903,1116.3z"/>
				<path class="st5" d="M903,1176.4H727.8c-0.2,0-0.4-0.2-0.4-0.4c0-0.2,0.2-0.4,0.4-0.4H903c0.2,0,0.4,0.2,0.4,0.4
					S903.3,1176.4,903,1176.4z"/>
				<path class="st5" d="M903,1147.1H727.8c-0.2,0-0.4-0.2-0.4-0.4s0.2-0.4,0.4-0.4H903c0.2,0,0.4,0.2,0.4,0.4
					C903.4,1147,903.3,1147.1,903,1147.1z"/>
				<path class="st31" d="M903,1206.8H727l-0.4-107.1c0-0.5,0.4-0.8,0.8-0.8c0,0,0,0,0,0c0.5,0,0.8,0.4,0.8,0.8l0.4,105.4H903
					c0.5,0,0.8,0.4,0.8,0.8S903.5,1206.8,903,1206.8z"/>
				<path class="st31" d="M874,1126.9l-64.4,61.9l-33.2-29.4l-49.1,45.9c-0.3,0.3-0.4,0.8,0,1.2c0.2,0.2,0.4,0.3,0.6,0.3
					c0.2,0,0.4-0.1,0.6-0.2l48-44.8l33.2,29.4l64.4-61.9V1126.9L874,1126.9z"/>
				<path class="st31" d="M780.8,1160.7c0,2.5-2,4.5-4.5,4.5s-4.5-2-4.5-4.5s2-4.5,4.5-4.5C778.8,1156.3,780.8,1158.3,780.8,1160.7z
					"/>
				<path class="st31" d="M814.6,1189.6c0,2.5-2,4.5-4.5,4.5s-4.5-2-4.5-4.5s2-4.5,4.5-4.5C812.6,1185.1,814.6,1187.1,814.6,1189.6z
					"/>
				<path class="st31" d="M879,1127.4c0,2.5-2,4.5-4.5,4.5s-4.5-2-4.5-4.5s2-4.5,4.5-4.5S879,1124.9,879,1127.4z"/>
			</g>
			<g>
				<path class="st12" d="M820.1,1472.9h152c6.1,0,11.1-5,11.1-11.1V1319c0-6.1-5-11.1-11.1-11.1h-152c-6.1,0-11.1,5-11.1,11.1
					v142.8C809,1467.9,814,1472.9,820.1,1472.9z"/>
				<rect x="935.6" y="1397.7" class="st32" width="16.5" height="47.6"/>
				<rect x="912.6" y="1390.6" class="st32" width="16.5" height="54.8"/>
				<rect x="889.6" y="1376" class="st32" width="16.5" height="69.4"/>
				<rect x="866.7" y="1365.8" class="st32" width="16.5" height="79.5"/>
				<rect x="843.7" y="1343.9" class="st32" width="16.5" height="101.5"/>
				<path class="st33" d="M961.3,1447.1H827.9c-0.6,0-1.1-0.5-1.1-1.1s0.5-1.1,1.1-1.1h133.3c0.6,0,1.1,0.5,1.1,1.1
					C962.4,1446.6,961.9,1447.1,961.3,1447.1z"/>
			</g>
			<g>
				<path class="st10" d="M752.6,1379.3h-99.7c-5.2,0-9.5-4.2-9.5-9.5v-88c0-5.2,4.2-9.5,9.5-9.5h99.7c5.2,0,9.5,4.2,9.5,9.5v88
					C762,1375,757.8,1379.3,752.6,1379.3z"/>
				<g>
					<g>
						<path class="st12" d="M675.6,1320.3h-12.2c-1,0-1.7-0.8-1.7-1.7l0,0c0-1,0.8-1.7,1.7-1.7h12.2c1,0,1.7,0.8,1.7,1.7l0,0
							C677.4,1319.6,676.6,1320.3,675.6,1320.3z"/>
						<path class="st12" d="M675.6,1326.6h-12.2c-1,0-1.7-0.8-1.7-1.7l0,0c0-1,0.8-1.7,1.7-1.7h12.2c1,0,1.7,0.8,1.7,1.7l0,0
							C677.4,1325.9,676.6,1326.6,675.6,1326.6z"/>
						<path class="st12" d="M675.6,1332.9h-12.2c-1,0-1.7-0.8-1.7-1.7l0,0c0-1,0.8-1.7,1.7-1.7h12.2c1,0,1.7,0.8,1.7,1.7l0,0
							C677.4,1332.2,676.6,1332.9,675.6,1332.9z"/>
						<path class="st12" d="M675.6,1339.3h-12.2c-1,0-1.7-0.8-1.7-1.7l0,0c0-1,0.8-1.7,1.7-1.7h12.2c1,0,1.7,0.8,1.7,1.7l0,0
							C677.4,1338.5,676.6,1339.3,675.6,1339.3z"/>
					</g>
					<g>
						<path class="st34" d="M711.4,1302C711.4,1302,711.4,1302,711.4,1302c-14.4,0-26,11.6-26,26s11.6,26,26,26
							c4.4,0,8.5-1.1,12.1-3l-12-23L711.4,1302L711.4,1302z"/>
						<path class="st35" d="M723.5,1351.1c8.3-4.3,13.9-13,13.9-23h-26L723.5,1351.1z"/>
						<path class="st5" d="M711.4,1302v26h26C737.4,1313.7,725.8,1302.1,711.4,1302z"/>
					</g>
				</g>
			</g>
		</g>
		<g>
			<g>
				<path class="st36" d="M2077.5,890.2l-6.6-1l-16.3-2.3c3.5-24.2,2.2-49.4-4.3-74.5l22.5-5.9c-2-7.5-4.3-14.8-7-21.8
					c-7.2-19.1-17-36.7-28.9-52.3l-10.3,7.7l-8.3,6.3c-15.2-20.3-34.2-37-55.7-49.7l11.7-20c-23.7-13.9-50.1-23.2-77.8-27.1l-3.3,23
					c-24.2-3.5-49.4-2.2-74.5,4.3l-5.9-22.5c-27.7,7.2-52.7,19.6-74.2,35.9l14,18.6c-20.3,15.1-37,34.2-49.7,55.7l-20-11.7
					c-14,23.7-23.2,50.1-27.1,77.8l0.2,0l15.2,2.2l7.7,1.1c-3.5,24.2-2.2,49.5,4.3,74.5l-22.5,5.9c7.2,27.7,19.6,52.6,35.8,74.1
					l18.6-14c15.2,20.3,34.3,37.1,55.8,49.7l-11.7,20c23.7,13.9,50,23.2,77.7,27.2l0.8-5.1l2.5-17.9c24.2,3.5,49.5,2.2,74.6-4.3
					l5.9,22.5c27.7-7.2,52.6-19.6,74.1-35.8l-14-18.6c20.3-15.1,37.1-34.2,49.8-55.7l20,11.7
					C2064.4,944.3,2073.7,917.9,2077.5,890.2L2077.5,890.2z M1892.8,960c-55,14.4-111.2-18.6-125.6-73.7
					c-14.4-55,18.6-111.2,73.6-125.5c50.5-13.2,101.9,13.4,121.2,60.2c1.8,4.3,3.3,8.7,4.5,13.3c2.5,9.5,3.6,19.1,3.3,28.5
					C1968.7,907.6,1938.3,948.1,1892.8,960z"/>
				<path class="st37" d="M1969.8,862.8c0.2-9.4-0.9-18.9-3.3-28.5c-1.2-4.6-2.7-9.1-4.5-13.3l64.7-80.9l10.3-7.7
					c11.9,15.7,21.7,33.2,28.9,52.3L1969.8,862.8z"/>
			</g>
			<g>
				<g>
					<defs>
						<path id="SVGID_00000100366502570493850460000017321295566815330236_" d="M2148.1,418.8h-649.3l-3.7,215L1767.5,834
							c-2.3,8.5-3.5,17.5-3.5,26.7c0,56.5,45.8,102.3,102.3,102.3c43,0,79.8-26.6,95-64.2h186.9L2148.1,418.8L2148.1,418.8z"/>
					</defs>
					<clipPath id="SVGID_00000142879232470747909350000010642675102740886689_">
						<use xlink:href="#SVGID_00000100366502570493850460000017321295566815330236_"  style="overflow:visible;"/>
					</clipPath>
					<g id="Arm_02_2_" style="clip-path:url(#SVGID_00000142879232470747909350000010642675102740886689_);">
						<g>
							<path class="st11" d="M1839.4,817.8l2.5-2c-22-27-30.9-49.6-27.4-68.9c4.9-26.3,32.5-42.3,57-56.4
								c13.7-7.9,26.7-15.4,34-23.8c5.5-6.4,7.8-13.2,6.8-20.5c-2.3-16.4-20.5-28.6-21.3-29.1l-1.8,2.7c0.2,0.1,17.8,11.9,19.9,26.9
								c0.9,6.3-1.2,12.3-6,17.9c-7,8.1-19.7,15.4-33.2,23.2c-25,14.4-53.4,30.8-58.5,58.6C1807.6,766.6,1816.8,790,1839.4,817.8z"
								/>
							<path class="st11" d="M1751.9,943.7l10.9-6.9c-17.8-27.9-17.8-53.2,0-73.2c29.7-33.2,90-7,90.6-6.7l5.3-11.8
								c-0.7-0.3-17.3-7.7-38.3-10.3c-28.8-3.7-52,3.3-67.1,20.2C1731.4,879.4,1730.9,910.9,1751.9,943.7z"/>
							<g>
								<g>
									
										<rect x="1626.5" y="545" transform="matrix(0.6126 -0.7904 0.7904 0.6126 209.981 1539.6453)" class="st36" width="98.3" height="21.2"/>
									<path class="st12" d="M1653.8,562.8l19.7,15.2c1.3,5.6,0.1,11.6-3.6,16.5l-11.1,14.2l-31-24.1l11.1-14.2
										C1642.5,565.6,1648.1,563,1653.8,562.8z"/>
									<g>
										
											<rect x="1638.5" y="575.6" transform="matrix(0.6126 -0.7904 0.7904 0.6126 162.5629 1529.2991)" class="st11" width="5.6" height="46.5"/>
									</g>
								</g>
								<g>
									<g>
										<polygon class="st36" points="1606.2,697.7 1611.8,703.5 1665.5,671.2 1650.3,655.4 										"/>
										<polygon class="st36" points="1552.5,656.4 1545.6,652.3 1564.9,592.7 1583.7,603.9 										"/>
										<path class="st12" d="M1607.1,602.5l37,28.7c4.5,3.5,11,2.7,14.5-1.8l0,0c3.5-4.5,2.7-11-1.8-14.5l-37-28.7
											c-4.5-3.5-11-2.7-14.5,1.8l0,0C1601.8,592.4,1602.6,599,1607.1,602.5z"/>
										<g>
											<path class="st12" d="M1650.5,614.1c4.7-0.8,9.3,2.3,10.2,7l8,39.6c1.9,9.1-4.9,17.6-14.1,17.8l0,0
												c-8.8,0.2-15.8-7.3-15-16.1l3.6-40.4C1643.5,618.1,1646.5,614.8,1650.5,614.1L1650.5,614.1z"/>
											<g>
												<g>
													<path class="st11" d="M1655.8,657.8c-3.7-1.2-7.5,1.6-7.5,5.5c0,2.4,1.6,4.5,3.9,5.3c3.7,1.2,7.5-1.6,7.5-5.5
														C1659.7,660.7,1658.1,658.5,1655.8,657.8z"/>
												</g>
											</g>
											<g>
												<g>
													<path class="st11" d="M1653.4,619.7c-2.9-0.9-5.8,1.2-5.7,4.2c0,1.8,1.2,3.5,3,4.1c2.9,0.9,5.8-1.2,5.7-4.2
														C1656.3,621.9,1655.1,620.2,1653.4,619.7z"/>
												</g>
											</g>
										</g>
										<g>
											<path class="st12" d="M1624.3,591.2c-0.5-4.8-4.7-8.3-9.5-8l-40.3,2.9c-9.2,0.6-15.7,9.4-13.4,18.4l0,0
												c2.2,8.5,11.3,13.3,19.5,10.2l37.9-14.3C1622.4,599,1624.7,595.2,1624.3,591.2L1624.3,591.2z"/>
											<g>
												<g>
													<path class="st11" d="M1617.3,588.9c-2.4-1.8-5.9-0.7-6.8,2.1c-0.6,1.7,0,3.7,1.5,4.8c2.4,1.8,5.9,0.7,6.8-2.1
														C1619.4,592,1618.8,590,1617.3,588.9z"/>
												</g>
											</g>
											<g>
												<g>
													<path class="st11" d="M1579.6,596.4c-3.1-2.4-7.6-1-8.8,2.8c-0.7,2.3,0.1,4.8,2,6.3c3.1,2.4,7.6,1,8.8-2.8
														C1582.3,600.4,1581.5,597.9,1579.6,596.4z"/>
												</g>
											</g>
										</g>
									</g>
								</g>
							</g>
							<g>
								
									<rect x="1697.3" y="501.5" transform="matrix(0.9911 -0.1328 0.1328 0.9911 -52.8951 235.1572)" class="st36" width="78.2" height="25.2"/>
								<path class="st12" d="M1769.3,537.5l50.2-6.7c15.1-2,25.7-15.9,23.6-31l0,0c-2-15.1-15.9-25.7-30.9-23.6l-50.2,6.7
									L1769.3,537.5z"/>
								<path class="st12" d="M1704.3,546.2l35.4-4.7l-7.3-54.6l-35.4,4.7c-15.1,2-25.7,15.9-23.6,31l0,0
									C1675.3,537.6,1689.2,548.2,1704.3,546.2z"/>
								<path class="st36" d="M1685.7,515c2.1-7.7,10.1-12.3,17.8-10.2s12.3,10.1,10.2,17.8c-2.1,7.7-10.1,12.3-17.8,10.2
									C1688.2,530.7,1683.6,522.7,1685.7,515z M1691.6,516.6c-1.2,4.5,1.4,9.1,5.9,10.3s9.1-1.4,10.3-5.9
									c1.2-4.5-1.4-9.1-5.9-10.3S1692.8,512.1,1691.6,516.6z"/>
							</g>
							<g>
								<path class="st11" d="M2026.9,683.2c0.6-0.7,15.5-17,24.7-40c12.6-31.5,8.6-60.3-11.7-83.3c-14.8-16.8-33.9-26.1-55.1-27
									c-24.5-1-47.5,9.6-55.4,17.2l8.9,9.3c5.2-5,24.7-14.5,45.9-13.6c17.9,0.7,33.4,8.4,46,22.7c17.1,19.4,20.2,42.9,9.4,70
									c-8.4,20.9-22.1,35.9-22.2,36.1L2026.9,683.2z"/>
								
									<rect x="1929" y="536.8" transform="matrix(0.7298 -0.6836 0.6836 0.7298 143.2881 1471.969)" class="st11" width="9.9" height="35.9"/>
								<g>
									
										<rect x="1882.8" y="603.5" transform="matrix(0.7631 -0.6463 0.6463 0.7631 60.0989 1387.7872)" class="st11" width="80.4" height="16.8"/>
									<path class="st11" d="M2007.5,711.4L2007.5,711.4c9.2-7.8,10.3-21.7,2.5-30.9l-86.9-102.3l-33.4,28.4l86.9,102.3
										C1984.4,718.1,1998.3,719.3,2007.5,711.4z"/>
									<g>
										<path class="st12" d="M1888.9,642.9L1798.3,521c-11.6-15.7-9.1-37.7,5.8-50.3l0,0c14.9-12.6,37.1-11.4,50.5,2.7
											l104.6,109.8L1888.9,642.9z"/>
										<path class="st11" d="M1812.8,481c10-8.4,25-7.1,33.4,2.8c8.4,10,7.1,25-2.8,33.4c-10,8.4-25,7.1-33.4-2.8
											C1801.5,504.4,1802.8,489.4,1812.8,481z M1819.2,488.6c-5.8,4.9-6.5,13.5-1.6,19.3s13.6,6.5,19.3,1.6
											c5.8-4.9,6.5-13.5,1.6-19.3C1833.7,484.5,1825,483.7,1819.2,488.6z"/>
									</g>
								</g>
							</g>
							<g>
								<path class="st12" d="M1828.1,897.5L1828.1,897.5c29.7,25.8,74.6,22.6,100.4-7.1l116.9-134.8c25.8-29.7,22.6-74.6-7.1-100.4
									l0,0c-29.7-25.8-74.6-22.6-100.4,7.1l-116.9,134.8C1795.2,826.8,1798.4,871.7,1828.1,897.5z"/>
								<path class="st11" d="M1966,681.2c-13.6,15.6-11.9,39.3,3.8,52.9c15.6,13.6,39.3,11.9,52.9-3.8s11.9-39.3-3.8-52.9
									C2003.2,663.9,1979.6,665.6,1966,681.2z M1977.4,691.1c8.1-9.4,22.3-10.4,31.6-2.2c9.3,8.1,10.4,22.3,2.2,31.6
									s-22.3,10.4-31.6,2.3C1970.3,714.6,1969.3,700.4,1977.4,691.1z"/>
							</g>
							<g>
								<g>
									<path class="st11" d="M1802.4,910.5h129.3v-55.5c0-35.7-29-64.7-64.7-64.7l0,0c-35.7,0-64.7,29-64.7,64.7V910.5z"/>
								</g>
							</g>
							<g>
								<rect x="1758.9" y="904" class="st11" width="209.8" height="48.6"/>
								<g>
									<path class="st12" d="M1724,971.8h293.9c0.2,1.3,0.2,2.7,0.2,4.1v141h-294.3v-141C1723.7,974.5,1723.8,973.1,1724,971.8z"
										/>
									<path class="st11" d="M1788.2,927.4h165.7c35.4,9.6,61.4,26.2,64.1,49.7h-293.9C1726.8,953.6,1752.7,937,1788.2,927.4z"/>
								</g>
								<rect x="1715" y="1074" class="st11" width="309.8" height="42.9"/>
								<g>
									<path class="st11" d="M1899,1012.6L1899,1012.6c4.4,0,7.9-3.5,7.9-7.9l0,0c0-4.4-3.5-7.9-7.9-7.9l0,0
										c-4.4,0-7.9,3.5-7.9,7.9l0,0C1891.1,1009,1894.7,1012.6,1899,1012.6z"/>
									<path class="st11" d="M1872.2,1012.6L1872.2,1012.6c4.4,0,7.9-3.5,7.9-7.9l0,0c0-4.4-3.5-7.9-7.9-7.9l0,0
										c-4.4,0-7.9,3.5-7.9,7.9l0,0C1864.3,1009,1867.8,1012.6,1872.2,1012.6z"/>
									<path class="st11" d="M1845.4,1012.6L1845.4,1012.6c4.4,0,7.9-3.5,7.9-7.9l0,0c0-4.4-3.5-7.9-7.9-7.9l0,0
										c-4.4,0-7.9,3.5-7.9,7.9l0,0C1837.4,1009,1841,1012.6,1845.4,1012.6z"/>
									<path class="st11" d="M1818.5,1012.6L1818.5,1012.6c4.4,0,7.9-3.5,7.9-7.9l0,0c0-4.4-3.5-7.9-7.9-7.9l0,0
										c-4.4,0-7.9,3.5-7.9,7.9l0,0C1810.6,1009,1814.2,1012.6,1818.5,1012.6z"/>
								</g>
								<path class="st11" d="M1937.6,1023.6h47.5v43.6h-47.5V1023.6z M1984.4,1024.3h-46v42.1h46V1024.3z"/>
							</g>
							<g>
								<g>
									<path class="st12" d="M1835.8,836.7c-2.7,4.1-4.4,8.4-5.3,12.9l3.9,0.8c-0.8,4.2-0.8,8.5,0.1,12.7l-3.9,0.8
										c0.9,4.6,2.8,8.9,5.4,12.9l0.7-0.5l2.5-1.7c2.3,3.4,5.3,6.5,9,8.9l-2.2,3.3c4.1,2.7,8.4,4.4,12.9,5.2l0.8-3.9
										c4.2,0.8,8.5,0.8,12.7-0.1l0.8,3.9c4.6-0.9,8.9-2.8,12.9-5.4l0,0l-0.6-1l-1.6-2.3c3.4-2.3,6.5-5.3,8.9-9l3.3,2.2
										c2.7-4.1,4.4-8.5,5.3-12.9l-3.9-0.8c0.8-4.2,0.8-8.5-0.1-12.7l3.9-0.8c-0.9-4.6-2.8-8.9-5.4-12.9l-3.3,2.2
										c-2.3-3.4-5.3-6.5-9-8.9l2.2-3.3c-4.1-2.7-8.5-4.4-12.9-5.3l-0.8,3.9c-4.2-0.8-8.5-0.8-12.7,0.1l-0.8-3.9
										c-4.6,0.9-8.9,2.8-12.9,5.4l0,0l1.5,2.2l0.7,1.1c-3.4,2.3-6.5,5.3-8.9,9L1835.8,836.7z M1851.4,847
										c5.3-8.1,16.1-10.3,24.2-5c8.1,5.3,10.3,16.1,5,24.2c-5.3,8.1-16.1,10.3-24.2,5C1848.3,865.8,1846.1,855,1851.4,847z"/>
								</g>
								<polygon class="st12" points="1859.7,847.3 1859.7,866.2 1877.2,856.2 								"/>
								<g>
									<path class="st12" d="M1839.8,896.8c0.6-0.9,1.3-1.8,1.9-2.8c-11.5-7.9-19.1-21.1-19.1-36l4.6,0l-6.3-9.5l-5.7,9.4l4.1,0
										C1819.2,874.1,1827.4,888.4,1839.8,896.8z"/>
									<path class="st12" d="M1911.7,856.7c0-12.4-4.7-24-13.4-32.9c-2.4-2.4-5-4.5-7.7-6.4c-0.5,1-1.1,2-1.6,2.9
										c2.5,1.7,4.8,3.6,7,5.8c8,8.2,12.4,19,12.4,30.5l-4.6,0l6.3,9.5l5.7-9.4L1911.7,856.7z"/>
								</g>
							</g>
						</g>
					</g>
				</g>
			</g>
		</g>
	</g>
</g>
</svg>
