<?xml version="1.0" encoding="utf-8"?>
<!-- Generator: Adobe Illustrator 26.4.1, SVG Export Plug-In . SVG Version: 6.00 Build 0)  -->
<svg version="1.1" id="Layer_1" xmlns="http://www.w3.org/2000/svg" xmlns:xlink="http://www.w3.org/1999/xlink" x="0px" y="0px"
	 viewBox="0 0 2882.2 2406.1" style="enable-background:new 0 0 2882.2 2406.1;" xml:space="preserve">
<style type="text/css">
	.st0{display:none;}
	.st1{display:inline;}
	.st2{fill:#BFD3F2;}
	.st3{fill:#1B57B3;}
	.st4{fill:#1D60C4;}
	.st5{fill:#FFFFFF;}
	.st6{fill:#7DB7C9;}
	.st7{fill:#47748C;}
	.st8{fill:#DBDBDB;}
	.st9{fill:#A5A6A9;}
	.st10{fill:#D67729;}
	.st11{fill:#59595B;}
	.st12{opacity:0.5;}
	.st13{fill:none;stroke:#7A5CE0;stroke-linecap:round;stroke-linejoin:round;stroke-miterlimit:10;}
	.st14{fill:none;stroke:#000000;stroke-width:2;stroke-linecap:round;stroke-linejoin:round;stroke-miterlimit:10;}
	.st15{fill:#F9E4CA;}
	.st16{fill:#241F3C;}
	.st17{fill:#FF6363;}
	.st18{fill:#1D1D1B;}
	.st19{clip-path:url(#SVGID_00000101809774847552968480000007366729391234959030_);fill:#081132;}
	.st20{fill:none;stroke:#1D1D1B;stroke-linecap:round;stroke-linejoin:round;stroke-miterlimit:10;}
	.st21{fill:none;stroke:#081132;stroke-width:0.5;stroke-linecap:round;stroke-linejoin:round;stroke-miterlimit:10;}
	.st22{fill:none;stroke:#634AB5;stroke-width:4;stroke-linecap:round;stroke-linejoin:round;stroke-miterlimit:10;}
	.st23{fill:#002E73;}
	.st24{fill:#DC8B77;}
	.st25{opacity:0.3;}
	.st26{fill:#9FD1FC;}
	.st27{fill:none;stroke:#1C1C1B;stroke-width:0.5;stroke-linecap:round;stroke-linejoin:round;stroke-miterlimit:10;}
	.st28{fill:#687399;}
	.st29{fill:none;stroke:#FF6363;stroke-width:4;stroke-linecap:round;stroke-linejoin:round;stroke-miterlimit:10;}
	.st30{fill:none;stroke:#292929;stroke-linecap:round;stroke-linejoin:round;stroke-miterlimit:10;}
	.st31{fill:none;stroke:#000000;stroke-linecap:round;stroke-linejoin:round;stroke-miterlimit:10;}
	.st32{fill:none;stroke:#101C59;stroke-linecap:round;stroke-linejoin:round;stroke-miterlimit:10;}
	.st33{fill:#C9F5F7;}
	.st34{fill:none;stroke:#AE96FF;stroke-width:5;stroke-linecap:round;stroke-linejoin:round;stroke-miterlimit:10;}
	.st35{fill:none;stroke:#FF6363;stroke-width:3;stroke-linecap:round;stroke-linejoin:round;stroke-miterlimit:10;}
</style>
<g id="BG" class="st0">
	<g class="st1">
		<g>
			<rect x="475.2" y="220.3" class="st2" width="3500" height="2000"/>
		</g>
		<g>
			<rect x="475.2" y="368.3" class="st3" width="3500" height="1704.1"/>
		</g>
	</g>
</g>
<g>
	<path class="st4" d="M2703.8,1124.6L1589.1,196.8c-68.6-57-124.7-30.7-124.7,58.5l4.1,183.4H663.5c-53.5,0.1-98.3,38.8-108.1,89.6
		c-1.6,7.4-2.6,15.1-2.6,23c0,0,0,867.9,0,928.7v427.5c0,60.8,49.8,110.5,110.5,110.5l801,0v183.4c0,89.2,56.1,115.5,124.7,58.4
		l1114.8-927.6C2772.4,1275.1,2772.4,1181.7,2703.8,1124.6z"/>
	<path class="st4" d="M554.9,1784.2c0-49.9-30-63-66.7-29.3c0,0-34.1,31.3-106.2,31.3c-114.7,0-207.7-93-207.7-207.7
		c0-114.7,93-207.6,207.7-207.6c72.1,0,106.2,31.3,106.2,31.3c36.7,33.8,66.7,20.6,66.7-29.3V1784.2z"/>
</g>
<g>
	<g id="Layer_5">
		<g>
			<g>
				<g>
					<path class="st5" d="M785.2,1641.1c3.1,21.6,10.3,42.2,21.2,60.7l15.6-9.2c9.9,16.7,23,31.6,38.9,43.5l-10.9,14.5
						c16.8,12.7,36.3,22.3,57.9,28l4.6-17.6c19.6,5.1,39.4,6.1,58.2,3.4l2,14l0.6,4c21.6-3.1,42.2-10.4,60.7-21.2l-9.2-15.6
						c2.9-1.7,5.7-3.5,8.5-5.4c13.3-9.1,25.2-20.3,35.1-33.5l14.5,10.9c9.7-12.8,17.6-27.2,23.3-42.9c1.8-4.9,3.3-9.8,4.7-14.9
						l-17.6-4.6c5.1-19.5,6.1-39.3,3.4-58.2l6-0.9l11.8-1.7l0.1,0c-3.1-21.6-10.3-42.2-21.2-60.7l-15.6,9.2
						c-9.9-16.7-22.9-31.6-38.8-43.5l10.9-14.5c-16.8-12.7-36.3-22.4-57.9-28l-4.6,17.6c-19.6-5.1-39.3-6.1-58.2-3.4l-2.6-18
						c-21.6,3.1-42.2,10.3-60.7,21.2l9.2,15.6c-16.7,9.9-31.6,22.9-43.5,38.8l-14.5-10.9c-12.7,16.8-22.4,36.3-28,57.9l17.6,4.6
						c-5.1,19.6-6.1,39.3-3.4,58.2l-12.7,1.8L785.2,1641.1L785.2,1641.1z M872,1597.5c11.2-42.9,55.1-68.6,98.1-57.4
						c42.9,11.2,68.6,55.1,57.4,98c-6.1,23.3-21.7,41.5-41.6,51.5c-16,8.1-34.8,10.8-53.6,6.6c-0.9-0.2-1.9-0.4-2.8-0.7
						C886.5,1684.4,860.7,1640.5,872,1597.5z"/>
				</g>
			</g>
		</g>
		<g>
			<path class="st5" d="M1842.8,770.7c2.5,17.6,8.4,34.4,17.3,49.5l12.7-7.5c8,13.7,18.8,25.8,31.7,35.4l-8.9,11.8
				c13.7,10.4,29.6,18.2,47.2,22.8l3.7-14.3c16,4.2,32.1,5,47.5,2.8l1.6,11.4l0.5,3.3c17.6-2.5,34.4-8.4,49.4-17.3l-7.5-12.7
				c2.4-1.4,4.7-2.9,6.9-4.4c10.9-7.4,20.6-16.6,28.6-27.3l11.8,8.9c7.9-10.5,14.3-22.2,19-35c1.4-4,2.7-8,3.8-12.2l-14.3-3.7
				c4.2-15.9,4.9-32,2.7-47.4l4.9-0.7l9.6-1.4l0.1,0c-2.5-17.6-8.4-34.4-17.3-49.5l-12.7,7.5c-8-13.7-18.7-25.8-31.6-35.4l8.9-11.8
				c-13.7-10.4-29.6-18.2-47.2-22.8l-3.7,14.3c-16-4.2-32-4.9-47.4-2.7l-2.1-14.7c-17.6,2.5-34.4,8.4-49.5,17.3l7.5,12.7
				c-13.7,8-25.8,18.7-35.4,31.6l-11.8-8.9c-10.4,13.7-18.2,29.6-22.8,47.2l14.3,3.7c-4.2,16-4.9,32-2.7,47.4l-10.4,1.5
				L1842.8,770.7L1842.8,770.7z M1913.6,735.1c9.1-35,44.9-56,80-46.8c35,9.1,56,44.9,46.8,79.9c-5,19-17.7,33.8-33.9,42
				c-13.1,6.6-28.4,8.8-43.7,5.4c-0.8-0.2-1.5-0.4-2.3-0.6C1925.4,806,1904.4,770.2,1913.6,735.1z"/>
		</g>
	</g>
	<g>
		<g>
			<g>
				<path class="st6" d="M1178.7,1473.6c-14.5-17.3-27.1-36.2-37.3-56.3c-10.4-20.4-18.4-42.1-23.8-64.3
					c-5.6-22.9-8.4-46.6-8.4-70.3c0-40.1,7.9-79,23.3-115.7c15-35.4,36.4-67.2,63.7-94.4c27.3-27.3,59.1-48.7,94.4-63.7
					c36.6-15.5,75.5-23.3,115.7-23.3v4.7c-39.5,0-77.8,7.7-113.8,23c-34.8,14.7-66.1,35.8-92.9,62.7c-26.9,26.9-47.9,58.1-62.7,92.9
					c-15.2,36-23,74.3-23,113.8c0,23.4,2.8,46.7,8.2,69.2c5.3,21.9,13.2,43.2,23.4,63.3c10.1,19.7,22.4,38.4,36.7,55.4
					c14.2,16.9,30.4,32.3,48,45.6l-2.9,3.8C1209.5,1506.4,1193.1,1490.8,1178.7,1473.6z"/>
			</g>
			<g>
				<polygon class="st7" points="1390.6,975.3 1417,988.6 1390.6,1001.9 				"/>
			</g>
		</g>
		<g>
			<g>
				<g>
					<path class="st8" d="M1237.7,1194.1l-55.7-28.4c-16.1,31.5-25.7,66.7-27.2,104.1l62.4,2.5
						C1218.4,1244.3,1225.7,1217.8,1237.7,1194.1z"/>
				</g>
				<g>
					<path class="st8" d="M1396.6,1468.8l-3.2,62.4c4.3,0.2,8.6,0.3,12.9,0.3c68.9,0,131.4-27.7,176.8-72.6l-43.9-44.4
						c-34.2,33.8-81.1,54.6-132.9,54.6C1403,1469.1,1399.8,1469,1396.6,1468.8z"/>
				</g>
				<g>
					<path class="st8" d="M1226.8,1339.9l-59.2,19.9c2.9,8.7,6.3,17.2,10.1,25.4l56.8-26.1C1231.6,1352.8,1229,1346.4,1226.8,1339.9
						z"/>
				</g>
				<g>
					<path class="st8" d="M1247.6,1383l-52.4,34c19.8,30.4,45.9,56.2,76.5,75.6l33.4-52.8C1282.1,1425.2,1262.5,1405.8,1247.6,1383z
						"/>
				</g>
				<g>
					<path class="st8" d="M1157.4,1317.4c1.6,11,4,21.8,7,32.4l60-17.4c-2.3-7.9-4-16-5.3-24.3L1157.4,1317.4z"/>
				</g>
				<g>
					<path class="st8" d="M1217.4,1289.9l-62.4,3.3c0.2,4.6,0.6,9.3,1.1,13.8l62.1-6.7C1217.9,1296.8,1217.6,1293.4,1217.4,1289.9z"
						/>
				</g>
				<g>
					<path class="st9" d="M1396.3,1091.2l-3.3-62.4c-84,4.3-157.1,49.8-199.5,116.8l52.8,33.4
						C1278.3,1128.6,1333.2,1094.4,1396.3,1091.2z"/>
				</g>
				<g>
					<path class="st8" d="M1580.4,1353.7l57.6,24.4c4.3-10.2,8-20.7,10.9-31.5l-60.3-16.5
						C1586.4,1338.2,1583.7,1346.1,1580.4,1353.7z"/>
				</g>
				<g>
					<path class="st8" d="M1332.5,1454.2l-24.4,57.6c23.3,9.9,48.4,16.3,74.6,18.8l5.8-62.2
						C1368.9,1466.4,1350,1461.6,1332.5,1454.2z"/>
				</g>
				<g>
					<path class="st8" d="M1590.6,1322.3l60.9,14c4.1-18.1,6.3-37,6.3-56.3c0-75.6-33.4-143.5-86.2-189.6l-40.8,47.3
						c39.6,34.7,64.6,85.6,64.6,142.3C1595.3,1294.6,1593.7,1308.7,1590.6,1322.3z"/>
				</g>
				<g>
					<path class="st8" d="M1544.7,1408.8l45.8,42.6c7.6-8.1,14.6-16.8,21.1-25.8l-51-36.1
						C1555.6,1396.2,1550.4,1402.7,1544.7,1408.8z"/>
				</g>
				<g>
					<path class="st8" d="M1320.4,1448.5l-28.4,55.7c2.2,1.1,4.3,2.2,6.5,3.2l26.8-56.5C1323.6,1450.1,1322,1449.3,1320.4,1448.5z"
						/>
				</g>
				<g>
					<path class="st8" d="M1564.9,1382.8l52.5,34c6-9.3,11.5-19,16.3-29.1l-56.5-26.8C1573.6,1368.5,1569.5,1375.8,1564.9,1382.8z"
						/>
				</g>
				<g>
					<path class="st8" d="M1448.9,1095.7l14.3-60.8c-15.1-3.5-30.8-5.6-46.8-6.3l-2.5,62.4
						C1425.8,1091.5,1437.5,1093.1,1448.9,1095.7z"/>
				</g>
				<g>
					<path class="st8" d="M1517,1126.7l36.3-50.9c-20.5-14.8-43.4-26.6-67.9-34.7l-19.9,59.3
						C1484.1,1106.5,1501.4,1115.5,1517,1126.7z"/>
				</g>
			</g>
			<g>
				<g>
					<path class="st10" d="M1277.4,1547.7l2-4.3c1.9,0.9,3.8,1.8,5.7,2.6l-1.9,4.3C1281.3,1549.5,1279.3,1548.6,1277.4,1547.7z"/>
				</g>
				<g>
					<path class="st10" d="M1400,1576.1l0.1-4.7c4.1,0.1,8.3,0,12.5-0.1l0.1,4.7c-3,0.1-6,0.1-8.9,0.1
						C1402.5,1576.1,1401.3,1576.1,1400,1576.1z M1381,1575.2l0.4-4.7c4.1,0.3,8.3,0.6,12.5,0.7l-0.2,4.7
						C1389.5,1575.8,1385.2,1575.5,1381,1575.2z M1418.8,1571c4.1-0.2,8.3-0.5,12.4-0.9l0.4,4.7c-4.2,0.4-8.4,0.7-12.6,0.9
						L1418.8,1571z M1362.1,1573.1l0.7-4.7c4.1,0.6,8.3,1.1,12.4,1.5l-0.5,4.7C1370.5,1574.3,1366.3,1573.7,1362.1,1573.1z
						 M1437.5,1569.4c4.1-0.5,8.3-1.1,12.4-1.7l0.7,4.7c-4.2,0.7-8.4,1.2-12.6,1.7L1437.5,1569.4z M1343.4,1569.9l1-4.6
						c4,0.8,8.2,1.6,12.3,2.3l-0.8,4.7C1351.7,1571.5,1347.5,1570.7,1343.4,1569.9z M1456,1566.7c4.1-0.7,8.2-1.6,12.2-2.5l1,4.6
						c-4.1,0.9-8.3,1.8-12.4,2.5L1456,1566.7z M1324.9,1565.4l1.3-4.6c4,1.1,8.1,2.1,12.1,3.1l-1.1,4.6
						C1333.1,1567.5,1329,1566.5,1324.9,1565.4z M1474.3,1562.7c4-1,8.1-2.1,12-3.3l1.3,4.6c-4,1.2-8.1,2.3-12.2,3.3L1474.3,1562.7z
						 M1306.8,1559.7l1.6-4.5c3.9,1.4,7.9,2.7,11.9,3.8l-1.4,4.5C1314.8,1562.4,1310.8,1561.1,1306.8,1559.7z M1492.3,1557.6
						c3.9-1.3,7.9-2.6,11.8-4l1.6,4.5c-3.9,1.4-8,2.8-12,4.1L1492.3,1557.6z M1289,1552.9l1.8-4.4c3.8,1.6,7.7,3.2,11.6,4.6
						l-1.7,4.4C1296.9,1556.1,1292.9,1554.5,1289,1552.9z M1509.9,1551.4c3.9-1.5,7.7-3.1,11.5-4.8l1.9,4.3
						c-3.8,1.7-7.8,3.3-11.7,4.8L1509.9,1551.4z M1527.1,1544.1c3.8-1.7,7.5-3.6,11.2-5.5l2.2,4.2c-3.7,1.9-7.6,3.8-11.4,5.6
						L1527.1,1544.1z M1543.8,1535.7c3.6-2,7.3-4.1,10.8-6.2l2.4,4.1c-3.6,2.2-7.3,4.3-11,6.3L1543.8,1535.7z M1559.9,1526.3
						c3.5-2.2,7-4.5,10.4-6.9l2.7,3.9c-3.5,2.4-7,4.7-10.6,7L1559.9,1526.3z M1575.4,1515.8c3.4-2.4,6.7-4.9,9.9-7.5l2.9,3.7
						c-3.3,2.6-6.7,5.2-10.1,7.6L1575.4,1515.8z M1590.2,1504.4c3.2-2.6,6.4-5.4,9.4-8.1l3.2,3.5c-3.1,2.8-6.4,5.6-9.6,8.3
						L1590.2,1504.4z M1604.2,1492.1c3-2.8,6-5.8,8.9-8.7l3.4,3.3c-2.9,3-6,6-9,8.9L1604.2,1492.1z M1617.4,1478.9
						c2.8-3,5.6-6.1,8.3-9.3l3.6,3.1c-2.7,3.2-5.6,6.4-8.4,9.4L1617.4,1478.9z M1629.7,1464.8c2.6-3.2,5.2-6.5,7.7-9.8l3.8,2.9
						c-2.5,3.4-5.2,6.7-7.8,10L1629.7,1464.8z M1641.1,1450c2.4-3.4,4.8-6.8,7.1-10.3l4,2.6c-2.3,3.5-4.7,7-7.2,10.4L1641.1,1450z
						 M1651.6,1434.5c2.2-3.5,4.3-7.1,6.4-10.7l4.1,2.3c-2.1,3.7-4.3,7.3-6.5,10.9L1651.6,1434.5z M1661,1418.3
						c2-3.6,3.9-7.4,5.7-11.1l4.3,2.1c-1.8,3.8-3.8,7.6-5.8,11.3L1661,1418.3z M1669.4,1401.6c1.7-3.8,3.4-7.6,5-11.4l4.4,1.8
						c-1.6,3.9-3.3,7.8-5.1,11.6L1669.4,1401.6z M1676.7,1384.4c1.5-3.9,2.9-7.8,4.3-11.7l4.5,1.5c-1.4,4-2.8,8-4.3,11.9
						L1676.7,1384.4z M1682.9,1366.7c1.2-3.9,2.4-8,3.5-12l4.6,1.2c-1.1,4.1-2.3,8.2-3.6,12.2L1682.9,1366.7z M1688,1348.7
						c1-4,1.9-8.1,2.7-12.2l4.6,0.9c-0.8,4.1-1.8,8.3-2.8,12.4L1688,1348.7z M1691.9,1330.4c0.7-4.1,1.4-8.2,1.9-12.3l4.7,0.6
						c-0.6,4.2-1.2,8.4-2,12.5L1691.9,1330.4z M1694.6,1311.9c0.5-4.1,0.9-8.3,1.1-12.4l4.7,0.3c-0.3,4.2-0.7,8.4-1.2,12.6
						L1694.6,1311.9z M1696.1,1293.2c0.2-4.1,0.3-8.3,0.3-12.5l4.7,0c0,4.2-0.1,8.5-0.3,12.7L1696.1,1293.2z M1695.9,1262.1l4.7-0.3
						c0.2,4.2,0.4,8.5,0.5,12.7l-4.7,0.1C1696.3,1270.4,1696.2,1266.2,1695.9,1262.1z M1694.3,1243.4l4.7-0.6
						c0.5,4.2,0.9,8.4,1.3,12.6l-4.7,0.4C1695.2,1251.7,1694.8,1247.6,1694.3,1243.4z M1691.4,1225l4.7-0.9
						c0.8,4.1,1.5,8.3,2.1,12.5l-4.7,0.7C1692.8,1233.2,1692.1,1229,1691.4,1225z M1687.3,1206.7l4.6-1.2c1,4.1,2,8.2,2.9,12.3
						l-4.6,1C1689.3,1214.8,1688.3,1210.7,1687.3,1206.7z M1682.1,1188.7l4.5-1.5c1.3,4,2.5,8.1,3.7,12.1l-4.6,1.3
						C1684.6,1196.7,1683.4,1192.7,1682.1,1188.7z M1675.8,1171.1l4.4-1.7c1.5,3.9,3,7.9,4.4,11.9l-4.5,1.6
						C1678.8,1178.9,1677.3,1175,1675.8,1171.1z M1668.3,1154l4.3-2c1.8,3.8,3.5,7.7,5.2,11.6l-4.4,1.8
						C1671.8,1161.5,1670.1,1157.7,1668.3,1154z"/>
				</g>
				<g>
					<path class="st10" d="M1662.7,1142.7l4.2-2.2c1,1.9,2,3.8,2.9,5.7l-4.2,2.1C1664.6,1146.4,1663.7,1144.5,1662.7,1142.7z"/>
				</g>
			</g>
			<g>
				<path class="st9" d="M1406.3,1556.2v-3.8c36.4,0,71.8-7.1,105-21.2c32.1-13.6,61-33,85.8-57.8c24.8-24.8,44.2-53.6,57.8-85.8
					c14.1-33.3,21.2-68.6,21.2-105c0-36.4-7.1-71.8-21.2-105c-13.6-32.1-33-61-57.8-85.8c-24.8-24.8-53.6-44.2-85.8-57.8
					c-33.3-14.1-68.6-21.2-105-21.2c-22.3,0-44.5,2.7-65.9,8.1c-20.8,5.2-41,13-60,23c-37.3,19.7-69.9,48.3-94.3,82.8l-3.1-2.2
					c24.8-34.9,57.9-64,95.7-83.9c19.3-10.2,39.7-18,60.8-23.3c21.7-5.5,44.2-8.2,66.8-8.2c36.9,0,72.8,7.2,106.5,21.5
					c32.6,13.8,61.8,33.5,87,58.6c25.1,25.1,44.9,54.4,58.6,87c14.3,33.7,21.5,69.6,21.5,106.5c0,36.9-7.2,72.8-21.5,106.5
					c-13.8,32.6-33.5,61.8-58.6,87c-25.1,25.1-54.4,44.9-87,58.6C1479.1,1549,1443.3,1556.2,1406.3,1556.2L1406.3,1556.2z"/>
			</g>
		</g>
	</g>
	<g>
		<g>
			<path class="st11" d="M1289.3,1349.8l-1.1-0.6v-136.4l118.1-68.2l118.1,68.2v136.4l-118.1,68.2L1289.3,1349.8z M1520,1215.4
				l-113.7-65.6l-113.7,65.6v131.3l113.7,65.6l113.7-65.6V1215.4z"/>
		</g>
		<g>
			<path class="st11" d="M1519.9,1347.6l0.5-1.1l-1,0.6l-5.7-9.9l2.7-1.6l5.7,9.9l-2,2.2L1519.9,1347.6z M1293.9,1343.7l0.2-0.1
				l-1.8-1l5.7-9.9l2.7,1.6l-4.9,8.6l8.5-3.9l1.3,2.9l-10.4,4.7L1293.9,1343.7z M1503.7,1340.3l1.3-2.9l10.4,4.7l-1.3,2.9
				L1503.7,1340.3z M1310.1,1336.4l10.4-4.7l1.3,2.9l-10.4,4.7L1310.1,1336.4z M1487.6,1333l1.3-2.9l10.4,4.7l-1.3,2.9L1487.6,1333z
				 M1326.2,1329.1l10.4-4.7l1.3,2.9l-10.4,4.7L1326.2,1329.1z M1504.8,1321.9l2.7-1.6l5.7,9.9l-2.7,1.6L1504.8,1321.9z
				 M1471.4,1325.7l1.3-2.9l10.4,4.7l-1.3,2.9L1471.4,1325.7z M1301.2,1327.2l5.7-9.9l2.7,1.6l-5.7,9.9L1301.2,1327.2z
				 M1342.4,1321.8l10.4-4.7l1.3,2.9l-10.4,4.7L1342.4,1321.8z M1455.3,1318.5l1.3-2.9l10.4,4.7l-1.3,2.9L1455.3,1318.5z
				 M1358.5,1314.5l10.4-4.7l1.3,2.9l-10.4,4.7L1358.5,1314.5z M1496,1306.6l2.7-1.6l5.7,9.9l-2.7,1.6L1496,1306.6z M1439.2,1311.2
				l1.3-2.9l10.4,4.7l-1.3,2.9L1439.2,1311.2z M1310,1311.9l5.7-9.9l2.7,1.6l-5.7,9.9L1310,1311.9z M1374.6,1307.2l10.4-4.7l1.3,2.9
				l-10.4,4.7L1374.6,1307.2z M1423,1303.9l1.3-2.9l10.4,4.7l-1.3,2.9L1423,1303.9z M1390.8,1299.9l10.4-4.7l1.3,2.9l-10.4,4.7
				L1390.8,1299.9z M1406.9,1296.6l1.3-2.9l10.4,4.7l-1.3,2.9L1406.9,1296.6z M1487.1,1291.2l2.7-1.6l5.7,9.9l-2.7,1.6
				L1487.1,1291.2z M1318.9,1296.5l5.7-9.9l2.7,1.6l-5.7,9.9L1318.9,1296.5z M1478.2,1275.9l2.7-1.6l5.7,9.9l-2.7,1.6L1478.2,1275.9
				z M1327.7,1281.2l5.7-9.9l2.7,1.6l-5.7,9.9L1327.7,1281.2z M1469.4,1260.5l2.7-1.6l5.7,9.9l-2.7,1.6L1469.4,1260.5z
				 M1336.6,1265.9l5.7-9.9l2.7,1.6l-5.7,9.9L1336.6,1265.9z M1460.5,1245.2l2.7-1.6l5.7,9.9l-2.7,1.6L1460.5,1245.2z
				 M1345.4,1250.5l5.7-9.9l2.7,1.6l-5.7,9.9L1345.4,1250.5z M1451.7,1229.9l2.7-1.6l5.7,9.9l-2.7,1.6L1451.7,1229.9z
				 M1354.3,1235.2l5.7-9.9l2.7,1.6l-5.7,9.9L1354.3,1235.2z M1442.8,1214.5l2.7-1.6l5.7,9.9l-2.7,1.6L1442.8,1214.5z
				 M1363.1,1219.8l5.7-9.9l2.7,1.6l-5.7,9.9L1363.1,1219.8z M1434,1199.2l2.7-1.6l5.7,9.9l-2.7,1.6L1434,1199.2z M1372,1204.5
				l5.7-9.9l2.7,1.6l-5.7,9.9L1372,1204.5z M1425.1,1183.9l2.7-1.6l5.7,9.9l-2.7,1.6L1425.1,1183.9z M1380.8,1189.2l5.7-9.9l2.7,1.6
				l-5.7,9.9L1380.8,1189.2z M1416.3,1168.5l2.7-1.6l5.7,9.9l-2.7,1.6L1416.3,1168.5z M1389.7,1173.8l5.7-9.9l2.7,1.6l-5.7,9.9
				L1389.7,1173.8z M1407.4,1153.2l2.7-1.6l5.7,9.9l-2.7,1.6L1407.4,1153.2z M1398.6,1158.5l5.7-9.9l2.7,1.6l-5.7,9.9L1398.6,1158.5
				z"/>
		</g>
		<g>
			<path class="st11" d="M1398.6,1404.5l2.7-1.6l5.7,9.9l-2.7,1.6L1398.6,1404.5z M1407.4,1409.8l5.7-9.9l2.7,1.6l-5.7,9.9
				L1407.4,1409.8z M1389.7,1389.2l2.7-1.6l5.7,9.9l-2.7,1.6L1389.7,1389.2z M1416.3,1394.5l5.7-9.9l2.7,1.6l-5.7,9.9L1416.3,1394.5
				z M1380.8,1373.8l2.7-1.6l5.7,9.9l-2.7,1.6L1380.8,1373.8z M1425.1,1379.1l5.7-9.9l2.7,1.6l-5.7,9.9L1425.1,1379.1z M1372,1358.5
				l2.7-1.6l5.7,9.9l-2.7,1.6L1372,1358.5z M1434,1363.8l5.7-9.9l2.7,1.6l-5.7,9.9L1434,1363.8z M1363.1,1343.2l2.7-1.6l5.7,9.9
				l-2.7,1.6L1363.1,1343.2z M1442.8,1348.5l5.7-9.9l2.7,1.6l-5.7,9.9L1442.8,1348.5z M1354.3,1327.8l2.7-1.6l5.7,9.9l-2.7,1.6
				L1354.3,1327.8z M1451.7,1333.1l5.7-9.9l2.7,1.6l-5.7,9.9L1451.7,1333.1z M1345.4,1312.5l2.7-1.6l5.7,9.9l-2.7,1.6L1345.4,1312.5
				z M1460.5,1317.8l5.7-9.9l2.7,1.6l-5.7,9.9L1460.5,1317.8z M1336.6,1297.1l2.7-1.6l5.7,9.9l-2.7,1.6L1336.6,1297.1z
				 M1469.4,1302.5l5.7-9.9l2.7,1.6l-5.7,9.9L1469.4,1302.5z M1327.7,1281.8l2.7-1.6l5.7,9.9l-2.7,1.6L1327.7,1281.8z
				 M1478.2,1287.1l5.7-9.9l2.7,1.6l-5.7,9.9L1478.2,1287.1z M1318.9,1266.5l2.7-1.6l5.7,9.9l-2.7,1.6L1318.9,1266.5z
				 M1487.1,1271.8l5.7-9.9l2.7,1.6l-5.7,9.9L1487.1,1271.8z M1406.9,1266.4l10.4-4.7l1.3,2.9l-10.4,4.7L1406.9,1266.4z
				 M1390.8,1263.1l1.3-2.9l10.4,4.7l-1.3,2.9L1390.8,1263.1z M1423,1259.1l10.4-4.7l1.3,2.9l-10.4,4.7L1423,1259.1z M1310,1251.1
				l2.7-1.6l5.7,9.9l-2.7,1.6L1310,1251.1z M1374.6,1255.8l1.3-2.9l10.4,4.7l-1.3,2.9L1374.6,1255.8z M1496,1256.4l5.7-9.9l2.7,1.6
				l-5.7,9.9L1496,1256.4z M1439.2,1251.8l10.4-4.7l1.3,2.9l-10.4,4.7L1439.2,1251.8z M1358.5,1248.5l1.3-2.9l10.4,4.7l-1.3,2.9
				L1358.5,1248.5z M1455.3,1244.5l10.4-4.7l1.3,2.9l-10.4,4.7L1455.3,1244.5z M1342.4,1241.2l1.3-2.9l10.4,4.7l-1.3,2.9
				L1342.4,1241.2z M1301.2,1235.8l2.7-1.6l5.7,9.9l-2.7,1.6L1301.2,1235.8z M1504.8,1241.1l5.7-9.9l2.7,1.6l-5.7,9.9L1504.8,1241.1
				z M1471.4,1237.3l10.4-4.7l1.3,2.9l-10.4,4.7L1471.4,1237.3z M1326.2,1233.9l1.3-2.9l10.4,4.7l-1.3,2.9L1326.2,1233.9z
				 M1487.6,1230l10.4-4.7l1.3,2.9l-10.4,4.7L1487.6,1230z M1310.1,1226.6l1.3-2.9l10.4,4.7l-1.3,2.9L1310.1,1226.6z M1292.3,1220.5
				l1.8-1l-0.2-0.1l1.3-2.9l10.4,4.7l-1.3,2.9l-8.5-3.9l4.9,8.6l-2.7,1.6L1292.3,1220.5z M1513.7,1225.8l5.7-9.9l1,0.6l-0.5-1.1
				l0.2-0.1l2,2.2l-5.7,9.9L1513.7,1225.8z M1503.7,1222.7l10.4-4.7l1.3,2.9l-10.4,4.7L1503.7,1222.7z"/>
		</g>
		<g>
			<g>
				
					<ellipse transform="matrix(0.9239 -0.3827 0.3827 0.9239 -331.9572 625.512)" class="st7" cx="1406.3" cy="1147.2" rx="20.5" ry="20.5"/>
			</g>
			<g class="st12">
				<path class="st7" d="M1406.3,1126.7c11.3,0,20.5,9.2,20.5,20.5s-9.2,20.5-20.5,20.5V1126.7z"/>
			</g>
		</g>
		<g>
			<circle class="st6" cx="1406.3" cy="1414.8" r="22.8"/>
		</g>
		<g class="st12">
			<path class="st6" d="M1406.3,1392c12.6,0,22.8,10.2,22.8,22.8c0,12.6-10.2,22.8-22.8,22.8V1392z"/>
		</g>
		<g>
			<ellipse class="st6" cx="1522.2" cy="1216.7" rx="22.8" ry="22.8"/>
		</g>
		<g>
			<g>
				<circle class="st10" cx="1289.8" cy="1215.4" r="25.6"/>
			</g>
			<g class="st12">
				<path class="st10" d="M1289.8,1189.7c14.2,0,25.6,11.5,25.6,25.6c0,14.2-11.5,25.6-25.6,25.6V1189.7z"/>
			</g>
		</g>
		<g>
			<g>
				<circle class="st6" cx="1290.4" cy="1346.3" r="15.6"/>
			</g>
			<g class="st12">
				<path class="st6" d="M1290.4,1330.7c8.6,0,15.6,7,15.6,15.6s-7,15.6-15.6,15.6V1330.7z"/>
			</g>
		</g>
		<g>
			
				<ellipse transform="matrix(0.996 -8.982102e-02 8.982102e-02 0.996 -109.3764 131.4951)" class="st9" cx="1406.3" cy="1281" rx="50" ry="50"/>
		</g>
		<g>
			<g>
				<path class="st7" d="M1487.7,1346.3c0,19.1,15.5,34.6,34.6,34.6c19.1,0,34.6-15.5,34.6-34.6s-15.5-34.6-34.6-34.6
					C1503.1,1311.7,1487.7,1327.2,1487.7,1346.3z M1504.7,1346.3c0-9.7,7.8-17.5,17.5-17.5c9.7,0,17.5,7.8,17.5,17.5
					s-7.8,17.5-17.5,17.5C1512.6,1363.8,1504.7,1356,1504.7,1346.3z"/>
			</g>
			<g class="st12">
				<path class="st7" d="M1522.2,1380.9c19.1,0,34.6-15.5,34.6-34.6s-15.5-34.6-34.6-34.6v11.4c12.8,0,23.1,10.4,23.1,23.1
					s-10.4,23.1-23.1,23.1V1380.9z"/>
			</g>
		</g>
		<g>
			<path class="st8" d="M1349.6,1277.4h-37.4c0,1.2-0.1,2.4-0.1,3.6c0,52,42.2,94.2,94.2,94.2c52,0,94.2-42.2,94.2-94.2
				c0-52-42.2-94.2-94.2-94.2v37.4c31.4,0,56.9,25.5,56.9,56.9c0,31.4-25.5,56.9-56.9,56.9c-31.4,0-56.9-25.5-56.9-56.9
				C1349.5,1279.8,1349.5,1278.6,1349.6,1277.4L1349.6,1277.4z"/>
		</g>
		<g>
			<g>
				<path class="st11" d="M1368.4,1278.8v4.4h4c1.1,17,14.7,30.6,31.7,31.7v4h4.4v-4c17-1.1,30.6-14.7,31.7-31.7h4v-4.4h-4
					c-1.1-17-14.7-30.6-31.7-31.7v-4h-4.4v4c-17,1.1-30.6,14.7-31.7,31.7H1368.4z M1408.6,1261.9v-3.2c5.1,0.5,9.7,2.7,13.3,6.1
					l-4,4c-3-2.8-7-4.6-11.4-4.6c-4.5,0-8.5,1.8-11.5,4.6l-4-4c3.5-3.4,8.1-5.6,13.3-6.1v3.2H1408.6z M1387.2,1283.2v-4.4h-3.2
					c0.5-5.1,2.8-9.8,6.1-13.3l4,4c-2.8,3-4.6,7-4.6,11.5l0,0c0,4.4,1.7,8.5,4.6,11.4l-4,4c-3.4-3.5-5.6-8.1-6.1-13.3H1387.2z
					 M1428.6,1278.8h-3.2v4.4h3.2c-0.5,5.1-2.8,9.8-6.1,13.3l-4-4c2.8-3,4.6-7,4.6-11.5c0-4.4-1.7-8.5-4.6-11.4l4-4
					C1425.9,1269,1428.1,1273.7,1428.6,1278.8L1428.6,1278.8z M1416.4,1291.1c-2.6,2.6-6.1,4.2-10.1,4.2c-3.9,0-7.5-1.6-10.1-4.2
					c-2.6-2.6-4.2-6.1-4.2-10.1l0,0c0-3.9,1.6-7.5,4.2-10.1c2.6-2.6,6.1-4.2,10.1-4.2c3.9,0,7.5,1.6,10.1,4.2
					c2.6,2.6,4.2,6.1,4.2,10.1C1420.6,1284.9,1419,1288.5,1416.4,1291.1z M1436.2,1278.8h-5.5c-1.1-11.7-10.4-21-22-22v-5.5
					c7.4,0.5,14,3.7,18.9,8.7C1432.4,1264.8,1435.6,1271.4,1436.2,1278.8z M1408.6,1305.3c11.7-1.1,21-10.4,22-22h5.5
					c-0.5,7.4-3.7,14-8.7,18.9c-4.9,4.9-11.5,8.1-18.9,8.7V1305.3z M1404.1,1300.1v3.2c-5.1-0.5-9.7-2.7-13.3-6.1l4-4
					c3,2.8,7,4.6,11.4,4.6c4.5,0,8.5-1.8,11.5-4.6l4,4c-3.5,3.4-8.1,5.6-13.3,6.1v-3.2H1404.1z M1376.5,1283.2h5.5
					c1.1,11.7,10.4,21,22,22v5.5c-7.4-0.5-14-3.7-18.9-8.7C1380.3,1297.2,1377.1,1290.6,1376.5,1283.2z M1376.5,1278.8
					c0.5-7.4,3.7-14,8.7-18.9c4.9-4.9,11.5-8.1,18.9-8.7v5.5c-11.7,1.1-21,10.4-22,22H1376.5z"/>
			</g>
		</g>
		<g class="st12">
			<path class="st6" d="M1522.2,1193.9c12.6,0,22.8,10.2,22.8,22.8c0,12.6-10.2,22.8-22.8,22.8V1193.9z"/>
		</g>
	</g>
	<g>
		<path class="st13" d="M1594.1,1401.1h-207.9c-8.1,0-14.6,6.6-14.6,14.7v353.5c0,8.1-6.5,14.7-14.6,14.7h-52.4"/>
		<path class="st13" d="M1578.4,1371h-207.9c-8.1,0-14.6,6.6-14.6,14.7V1722c0,8.1-6.5,14.7-14.6,14.7h-52.4"/>
		<path class="st13" d="M1656.8,1411.9h-255c-8.1,0-14.6,6.6-14.6,14.7v239c0,6.8-5.5,12.3-12.2,12.3h-69"/>
	</g>
	<g>
		<path class="st14" d="M1432.3,1806.1l55.6-367.5c0.2-1.2,1.9-1.1,2,0.1l51,367.4"/>
		<polyline class="st14" points="1668.9,1803.3 1756.7,1563.6 1814.5,1803.3 		"/>
		<g>
			<g>
				<g>
					<path class="st5" d="M1944.2,1457.6c-0.5,1.6-1.1,3.1-1.7,4.7C1943.1,1460.7,1943.7,1459.2,1944.2,1457.6z"/>
					<path class="st5" d="M1946.5,1255.4c-9.8-19.9-25-36.5-45.7-43.5c-23.2-7.8-48.6-2.3-71.7,5.8c-31.1,10.9-48.7,26.3-62.3,56
						c-14.6,31.9-25.2,65.7-43.5,95.8c-19.6,32.5-47.7,59.7-80.6,78.4c-31.2,17.8-65.9,23-76.9,63c-0.2,0.6-0.2,1.1-0.4,1.7
						c2,5.1,4.6,10,7.9,14.6c6,8.5,13.8,15.5,22.4,21.3c18.9,12.7,41.2,19.8,63.3,24.1c22.3,4.4,45.2,6.1,68,5.3
						c13.9-0.5,27.1-3,40.2-6.5c-14.7,2.7-29.5,4.5-44.5,5c-7.5,0.2-14.9,0.2-22.4-0.1c0.3-0.1,0.6-0.3,0.9-0.4
						c36-17.6,71.2-37.9,101.8-64.1c28.4-24.3,54-52.2,74.3-83.8c9.8-15.3,17.8-31.5,25.5-47.9c7.3-15.5,14.8-31,21.5-46.8
						C1934.7,1309.1,1944.9,1282.3,1946.5,1255.4z"/>
				</g>
				<path class="st15" d="M1607.7,1482.4c-15.4,7.2-31.7,12.5-48.4,15.9c-1.7,0.3-3.5,0.6-4.9-0.2c-1.9-1-2.6-3.5-3-5.7
					c-7.4-37.6-14.9-75.2-22.3-112.9c-3.3-16.8-6.6-34.7-0.3-50.6c1.9-4.9,5.1-9.8,10-11.7c4.3-1.6,9.1-0.6,13.4,0.8
					c19.8,6.4,35.6,17.6,40.9,38.3c4,15.6,3.6,29.8,3.8,45.5C1596.8,1405.4,1601.2,1485.4,1607.7,1482.4z"/>
				<path class="st15" d="M1601.5,1635.6c-7.7,27.2-14.7,51.2-16.3,55.9c-6.9,20.7-11.8,74.3-24,93.3c-15.5-0.2-27.5-5.9-42.9-7.6
					c-0.3-15.7,7.4-107.9,7.4-162.5c11.9,4.7,18.1,5.8,30.5,9.3C1571.3,1628.3,1586.4,1632.1,1601.5,1635.6z"/>
				<path d="M1607.3,1511.2c-1-12.4-2-27.7-10.8-37.4c-13.7-15-30.9,0.5-44.2,7.8c-14.5,7.9-29.1,15.6-43.5,23.6
					c-8.4,4.7-26.8,9.6-15.5,18c8.9,6.6,28.2,1.2,37.7-0.2c17.9-2.7,36.1-4.5,53.8-8.6C1592.2,1512.7,1599.6,1511.4,1607.3,1511.2z"
					/>
				<path class="st16" d="M1825.2,1527.7c-24.3,13.9-52.6,18.7-80.5,20.9c-39.4,3.2-70.3,5-109.3-1.2c3.3,0.5-43.3,187.3-46.9,199.5
					c-0.4,1.4-0.9,3-2.2,3.8c-1.2,0.7-2.6,0.5-4,0.4c-22.6-3-45.2-6.1-67.8-9.1c-1.8-0.2-3.8-0.6-4.9-2.1c-0.8-1.1-0.9-2.6-0.9-4
					c-1.3-59.3,1.9-114.2,13.2-172.7c6.1-31.6,9.6-66.3,31.3-91.6c26.5-30.9,68.4-39.2,106.9-42.4c47.3-3.9,95-5.1,142.5-8.9
					c22.8-1.8,59.9,4.1,68,30.1C1880.2,1480.3,1848.7,1514.3,1825.2,1527.7z"/>
				<path class="st17" d="M1899.7,1318.8c-5.7-19.6-14.5-38.1-20.1-57.7c-11.3-39.2-13.8-77.2-51.3-99.7c-7-4.2-16.5-6.6-24.5-8
					c-6.5-1.1-13.3-0.5-19.9,0c-42.7,3.8-83,4.4-94.9,52.8c-0.7,3-1.3,6-1.2,9c0.3,4.3,2,8.2,3.8,12.1c6.4,14.1,8.7,25.2,13,40.1
					c10.6,36.9,6.1,84.6,3.9,122.4c-1.8,29.4,20.6,35.3,44.5,43.7c15.4,5.5,31.4,10.4,47.4,13.8c18.4,3.9,37.3,3.6,56.1,3.3
					c7.2-0.1,14.3-0.2,21.5-0.1c1.4-2.3,1.2-6.1,4-10.4C1906.2,1403.8,1911.8,1360.6,1899.7,1318.8z"/>
				<path d="M1508.7,1776.1c4.2-2.7,4.3-7.7,5.8-12.2c0.8-2.3,2.9-4.7,5.2-3.8c0.7,0.3,1.2,0.8,1.7,1.3c5.5,5.6,11.9,10.5,18.7,14.3
					c5.1,2.8,11.2,2.4,16.8,2c4.3-0.3,8.9-2.1,13.2-1.1c-2.5,10.5-5.1,21.9-9,32.2c-0.4,0.9-0.7,1.9-1.4,2.6
					c-1.2,1.2-3.1,1.4-4.9,1.5c-32,1.8-64.3,3.6-96.1-0.1c-4-0.5-8.2-1.1-11.3-3.7c-7.2-5.9-0.9-14.1,5.7-16.5
					c12.6-4.5,25.8-6.6,38.5-10.5c4.9-1.5,11.8-3,16.4-5.6C1508.2,1776.5,1508.5,1776.3,1508.7,1776.1z"/>
				<path class="st16" d="M1597.4,1400.4c-0.2,14.1,9.7,27.4,16.7,39c2.7,4.4,21,38.3,25.5,37.7c13.9-1.9,30.2-15.2,45.1-19.7
					c24.2-7.4,44.4-20.7,70.5-22.8c-7.5,0.6-35.9-36.5-40.8-44.2c-32.4-51.1-70.6-125.8-139.1-130.2c-10.4-0.7-21-0.9-31,1.7
					c-1.1,0.3-2.3,0.7-3,1.6c-0.6,0.8-0.7,1.9-0.7,2.9c-0.7,19.4,12.2,43,19.1,61.1c5.7,15,11.6,32.1,20,45.8
					c4.4,7.1,6.7,3.5,13.5,6c4.9,1.9,5.4,6.8,5,12.1C1597.9,1394.5,1597.5,1397.6,1597.4,1400.4z"/>
				<path class="st16" d="M1508.1,1309.9c-1.3-29.1,15.1-59.7,43.8-69.5c17.1-5.8,30.4-0.6,39.8,14.6c9.9,15.9,17.1,27.7,16.8,47.2
					c-0.5,36.5,11.1,72,6.2,108.4c-0.7,5-1.7,10.3-4.9,14.2c-16,19.5-50.6,5.4-71.4,9.4c-3.3,0.6-6.6,1.6-10,1.8
					c-1.6,0.1-3.4-0.1-4.5-1.3c-0.7-0.8-1-1.8-1.2-2.8c-2.9-11.3-4.7-22.5-6.2-34C1512.6,1368.7,1509.5,1339.3,1508.1,1309.9z"/>
				<g id="XMLID_14_">
					<g id="XMLID_15_">
						<path id="XMLID_16_" class="st15" d="M1783.7,1107.4c-0.8-4.8-1.2-9.7-2.6-14.5c-1.7-5.7-4-11.2-6.5-16.6
							c-1.1-1.7-2.2-3.4-3.5-5.1c-4.8-6.2-12.1-10-19.7-11.3c-8.6-1.5-14.6,1-22.6,3.7c-9.2,3.2-19.3-5.1-21.7,4.4
							c-2.7,10.4,3.2,37.7,7.4,47.6c2.8,6.5,6,12.9,10.9,18c10.2,10.8,23.8,10.3,36.9,5.2c5-2,9.1-5.1,12.7-9.1
							c2.2-2.5,9.6-10.6,9.3-14.1C1783.8,1112.9,1783.7,1110.2,1783.7,1107.4z"/>
					</g>
				</g>
				<g id="XMLID_7_">
					<g id="XMLID_8_">
						<path class="st15" d="M1812.4,1155.1c-3.3-0.6-14.7-5-19.4-13.9c-6-11.5-7.5-22.1-10.5-34.1c-0.2-0.1-0.4-0.2-0.6-0.2
							c-2.5,0.2-5.6,6.2-7.3,7.9c-2.9,3-6,5.8-9.4,8.3c-7.1,5.1-15.3,7.9-24.1,8c-2.3,0-5,0-6.7,1.6c-0.3,0.3-0.6,0.7-0.8,1
							c-0.7,1.3,6.3,12.8,7.2,14.6c5.3,12.2,9.9,22.1,1.5,33.3c-3.2,4.3,19.2,6.8,21,6.6c9.2-0.7,18.5-4.3,26.1-9.6
							C1798.1,1172.5,1807.3,1164.3,1812.4,1155.1z"/>
					</g>
				</g>
				<path class="st18" d="M1779.4,1113.2c10.2,0.9,6-6.6,6.6-13.5c0.3-3.3,1.6-7.3,3.1-10.4c1.3-2.8,4.3-5.1,4-8.4
					c-0.3-2.7-2.6-4.7-3.3-7.3c-1.1-4.4,2.8-9.3,0.7-13.3c-2.2-4.2-9.6-4.3-10.2-9c-0.2-1.3,0.3-2.6,0.6-4c0.8-4.5-1.7-9.1-5.4-11.7
					c-3.7-2.6-8.5-3.4-13-3.1c-3.8,0.2-7.8,1.1-11.4-0.1c-1.9-0.6-3.6-1.7-5.5-2.5c-7-3-15.9-0.5-20.4,5.6c-1.2,1.6-2.2,3.5-3.9,4.5
					c-3.1,1.8-6.8,0-10.3-0.6c-12.9-2.1-22.2,13.1-19.5,24.5c1.7,7.1,7.6,13,14.6,14.4c6.4,1.3,12.9-1,19.4-1.5
					c6.6-0.5,10.5,1.4,14.4,5.4c0.7,0.7,1.4,1.5,2,2.3c3.4,4.1,8.8,10.5,14.7,9.2c1.8-0.4,3.7-1.8,5.4-1c1.7,0.8,1.9,3,2.2,4.9
					C1765.3,1105.8,1771.1,1112.5,1779.4,1113.2z"/>
				<path class="st17" d="M1647.6,1267.9c22.9-5.2,46-9.4,69.3-12.6c-1.1-11.7,4.5-24.7,7-36.1c3.9-17.5,9.8-35.5,19.5-50.7
					c0-2.7,0.2-5.5,0.4-8.2c-0.5-0.1-1.1-0.2-1.7-0.3c-21-1.7-41.4,9.2-60.9,15.5c-22,7.1-43.8,15.1-64,26.5
					c-17.6,10-45.2,25.9-41.9,50.6c0.6,4.1,2.5,7.9,4.8,11.3c8.4,12.3,22.6,19.7,37.3,20.7c11.5,0.8,14.8-4.2,18.8-9
					C1638.6,1272.4,1641.6,1269.3,1647.6,1267.9z"/>
				<path class="st15" d="M1572.6,1244.5c-7,19.5,0.6,41,9.1,59.9c6.7,14.7,13.3,31.1,22.5,44.4c7.4,10.7,15.6,20,21.2,32.1
					c4.3,9.4,9,20.8,19.2,22.7c5.7,1.1,12-1.8,14.9-6.8c10.1-17.2-10.3-38-15.6-53.1c-8.4-24.3-10-53.6-14.7-78.9
					c-1.6-8.9-3.4-17.9-7.7-25.8c-4.3-7.9-11.8-14.6-20.7-15.6C1588.3,1222.1,1576.9,1232.5,1572.6,1244.5z"/>
				<g>
					<g>
						<defs>
							<path id="SVGID_1_" d="M1714,1203.9c3.7,16.2,16,23.5,30.2,30.1c4.7,2.2,9.6,4.1,14.8,5.9c11.8,4.3,24.7,7.2,37.1,3.8
								c13-3.6,25-14.4,31.8-26c8.9-15.2,13.9-37.3,6.8-54.2c-1-2.3-2.2-4.6-4.2-6.1c-4.2-3.2-9.8-1.9-15.2-1.7
								c-0.3,0.2-0.6,0.3-1.1,0.2c-0.4,0-0.7-0.1-1.1-0.2c-0.9,0-1.8-0.1-2.6-0.2c-3.4-0.6-5.8-2-7.8-3.9c-3.8-2.7-7.1-6.3-9.8-10.4
								c-7.2-10.8-7.5-22.1-10.5-34.1c-0.2-0.1-0.4-0.2-0.6-0.2c-2.5,0.2-5.6,6.2-7.3,7.9c-2.9,3-6,5.8-9.4,8.3
								c-7.1,5.1-15.3,7.9-24.1,8c-2.3,0-5,0-6.7,1.6c-0.3,0.3-0.6,0.7-0.8,1c6.7,13.3,14.5,27,12.2,42.1c-0.6,3.7-2,7-4.4,9.6
								c-0.1,0.2-0.3,0.3-0.4,0.5c-1.1,1.1-2.4,2.1-3.9,2.9c-7.5,4-20.9,3.8-23.5,13.2c0.1,0.4,0.1,0.8,0.2,1.2
								C1713.8,1203.3,1713.9,1203.6,1714,1203.9z"/>
						</defs>
						<clipPath id="SVGID_00000151504732288709271040000010124005054030113464_">
							<use xlink:href="#SVGID_1_"  style="overflow:visible;"/>
						</clipPath>
						<path style="clip-path:url(#SVGID_00000151504732288709271040000010124005054030113464_);fill:#081132;" d="M1761.4,1137.3
							c-7.2,7.4-14.4,14.8-21.6,22.1c-1.1-4.1-2.3-8.3-3.7-12.3c-1-2.9-1.6-4.5,0.3-5.3c7.8,1.1,15.9-0.7,23.3-3.8
							c0.4-0.2,0.8-0.3,1.2-0.5C1761.1,1137.4,1761.2,1137.4,1761.4,1137.3z"/>
					</g>
				</g>
				<path class="st17" d="M1812.8,1155.2c-10.9,51.4-1.3,104.8,8.3,156.4c2.4,12.7,4.7,25.3,7.1,38c1.7,9.2,3.6,18.8,9.6,26
					c12.5,15.2,37.7,20.8,56.2,22.6c11.7,1.2,19.6,2,22.8-11.2c2.5-10.3,5.5-23.9,5.2-34.6c-0.2-6.7-1.7-13.2-3.2-19.7
					c-6.5-27.6-12.9-55.2-19.4-82.8c-5-21.4-11-44.2-25.8-61.1C1858.4,1171.6,1838.7,1159.1,1812.8,1155.2z"/>
				<path class="st20" d="M1847.9,1364.6c-6.6-24.3-11.4-49.2-14.2-74.3c-1.9-17,0-44.5-21.4-50.1"/>
				<path class="st21" d="M1612.3,1426.5c-0.4-36.4-19.1-90.3-27.3-125.7"/>
				<path class="st5" d="M1722.5,1120.4c1.9,2.9,5.1,4.5,8.2,4c3.1-0.4,5.9-2.9,7.2-6.2"/>
				<path class="st22" d="M1741,1569.8c-28.5-14.3-39.1-37.1-32.5-69.7c6.6-32.5,30-63.1,64.7-79.5c53.3-25.2,103.5-15.3,162.7-1.8"
					/>
				<path class="st21" d="M1628.8,1511.7c-1.6,12.3-2,27.6-3.6,40"/>
				<path class="st21" d="M1723.3,1437.7c-49.1,0-73.6-5.1-111.8,0.7"/>
				<path class="st15" d="M1764.5,1084.9c-6.2,0-11.3,5.1-11.3,11.4c0,6.3,5.1,11.4,11.3,11.4c6.2,0,11.3-5.1,11.3-11.4
					C1775.8,1090,1770.7,1084.9,1764.5,1084.9z"/>
				<path class="st23" d="M1722.9,1578.4c14.9-0.5,72.7,5.7,145.6-35.8c41.1-23.4,63.1-50.3,74-80.4c0.6-1.6,1.2-3.1,1.7-4.7
					c16.3-50.5,22.3-114.6,13.6-166.8c-2-12.1-5.8-24.2-11.3-35.3c-1.6,26.9-11.9,53.8-22.1,78c-6.7,15.8-14.2,31.3-21.5,46.8
					c-7.8,16.4-15.7,32.6-25.5,47.9c-20.2,31.6-45.9,59.5-74.3,83.8c-30.6,26.2-65.8,46.5-101.8,64.1c-0.3,0.1-3.2,1.4-3.5,1.5
					C1705.2,1577.8,1715.4,1578.7,1722.9,1578.4z"/>
			</g>
			<path class="st15" d="M1857.9,1339.3c18.9-2,38,0.6,55.6,7.6c2,0.8,4,1.7,5.4,3.2c7.8,8.3-6.2,35.9-14.6,41.5
				c-17.4,11.7-51.5,7.1-71.1,5.4c-36-3-70-4.9-105.9-4.3c-9.1,0.1-18.3,0.3-27.4,0.4c-11.7,0.2-30.3,4.8-19.1-12.5
				c6.7-10.2,18.7-17.1,30.9-16.9c9.2,0.2,18,3.9,27.2,3.8c5.3,0,10.6-1.4,15.7-2.8c18.2-4.9,36.3-8,54.1-13.4
				c11.3-3.4,22.5-7.1,34-9.6C1847.8,1340.7,1852.8,1339.8,1857.9,1339.3z"/>
			<path class="st24" d="M1579.4,1371c-0.2,0-0.4,0-0.7,0"/>
			<path class="st25" d="M1948.4,1304.3c-0.9-6.1-1.6-12.3-2.2-18.4c-0.5-5.4-2.2-12.2-1.4-17.6c-0.9,6-2.2,12-3.9,17.9
				c-1.1,3.9-2.4,7.8-3.7,11.7c-6.2,18.4-13.2,35.3-20.7,53.2c-7.5,17.7-16.5,35.4-25.2,52.4c-4.2,8.2-5.5,11.7,4.3,15
				c12.5,4.1,27.7,0.1,36.1-10.1c5.1-6.3,7.7-14.2,9.7-22c2.2-9,3.7-18.1,5.2-27.2c1.2-7.1,2.4-14.5,3-21.9
				C1950.6,1326.2,1950,1315.2,1948.4,1304.3z"/>
		</g>
		<g>
			<path class="st14" d="M1890.4,1806.1l58.2-367.5c0.2-1.2,2-1.1,2.1,0.1l53.4,367.4"/>
			<rect x="1454.2" y="1427.1" class="st26" width="529.3" height="16.3"/>
		</g>
		<path class="st27" d="M1768.7,1090.7c-3.3-2.4-8.9-0.2-9.6,3.9"/>
		<g>
			<path class="st28" d="M1579,1423.5v-2.6c0-2.4,1.9-4.3,4.3-4.3h238.2c2.4,0,4.3,1.9,4.3,4.3v2.6c0,2.4-1.9,4.3-4.3,4.3h-238.2
				C1581,1427.8,1579,1425.9,1579,1423.5z"/>
			<path class="st28" d="M1560.2,1308.9c-0.8-5.1,3-9.6,8-9.6h194.3c4.1,0,7.7,3.1,8.4,7.3l18.4,121.2h-211L1560.2,1308.9z"/>
			<g>
				<line class="st29" x1="1636" y1="1371.3" x2="1655.1" y2="1355.3"/>
				<line class="st29" x1="1661.1" y1="1371.3" x2="1680.3" y2="1355.3"/>
			</g>
		</g>
		<path class="st20" d="M1632.6,1279.3c3.6-5,7.8-15.3,7.2-23.2"/>
	</g>
	<g>
		<g>
			<g>
				<g>
					<path class="st17" d="M1158.1,1044.5c-0.5,4-4.2,6.9-8.2,6.4c-4-0.5-6.9-4.2-6.4-8.2c0-0.3,0.1-0.5,0.2-0.7
						c-2.9,0.1-5.7,0.5-8.5,1.2c0.1,0.2,0.3,0.5,0.4,0.7c1.6,3.7-0.2,8.1-3.9,9.6c-3.7,1.6-8-0.2-9.6-3.9c-0.1-0.3-0.2-0.5-0.2-0.8
						c-2.4,1.5-4.7,3.3-6.8,5.3c0.3,0.1,0.5,0.3,0.7,0.5c3.2,2.5,3.9,7.1,1.4,10.3c-2.4,3.2-7,3.9-10.3,1.4
						c-0.2-0.2-0.4-0.4-0.7-0.6c-1.3,2.5-2.4,5.2-3.3,8.1c0.3,0,0.6,0,1,0c4,0.5,6.9,4.2,6.4,8.2c-0.5,4-4.2,6.9-8.2,6.4
						c-0.3,0-0.6-0.1-1-0.2c0.1,3,0.5,5.9,1.2,8.7c0.3-0.2,0.6-0.4,0.9-0.5c3.7-1.6,8,0.2,9.6,3.9c1.6,3.7-0.2,8.1-3.9,9.6
						c-0.3,0.1-0.7,0.2-1,0.3c1.6,2.5,3.4,4.8,5.4,7c0.2-0.3,0.4-0.7,0.6-1c2.4-3.2,7-3.9,10.3-1.4c3.2,2.4,3.9,7.1,1.4,10.3
						c-0.2,0.3-0.5,0.6-0.8,0.9c2.6,1.4,5.3,2.5,8.2,3.3c0-0.4,0-0.8,0-1.2c0.5-4,4.2-6.9,8.2-6.4c4,0.5,6.9,4.2,6.4,8.2
						c0,0.4-0.2,0.8-0.3,1.1c3-0.1,5.9-0.6,8.8-1.3c-0.2-0.3-0.4-0.7-0.6-1.1c-1.6-3.7,0.2-8.1,3.9-9.6c3.7-1.6,8,0.2,9.6,3.9
						c0.1,0.4,0.2,0.7,0.3,1.1c2.5-1.6,4.8-3.4,6.9-5.5c-0.3-0.2-0.7-0.4-1-0.6c-3.2-2.5-3.9-7.1-1.4-10.3s7-3.9,10.3-1.4
						c0.3,0.2,0.5,0.5,0.8,0.7c1.3-2.6,2.4-5.3,3.2-8.2c-0.3,0-0.7,0-1,0c-4-0.5-6.9-4.2-6.4-8.2c0.5-4,4.2-6.9,8.2-6.4
						c0.3,0,0.6,0.1,0.9,0.2c-0.1-2.9-0.6-5.8-1.3-8.6c-0.3,0.2-0.5,0.3-0.8,0.5c-3.7,1.6-8-0.2-9.6-3.9c-1.6-3.7,0.2-8.1,3.9-9.6
						c0.3-0.1,0.5-0.2,0.8-0.2c-1.6-2.4-3.3-4.7-5.3-6.8c-0.1,0.2-0.3,0.5-0.4,0.7c-2.4,3.2-7,3.9-10.3,1.4s-3.9-7.1-1.4-10.3
						c0.2-0.2,0.3-0.4,0.5-0.6c-2.5-1.3-5.2-2.4-8-3.2C1158.1,1043.9,1158.1,1044.2,1158.1,1044.5z M1175.3,1090.2
						c-2,16.4-16.9,28.1-33.3,26.1c-16.4-2-28-17-26-33.5c2-16.4,16.9-28.1,33.3-26.1C1165.7,1058.8,1177.3,1073.8,1175.3,1090.2z"
						/>
				</g>
				<path class="st17" d="M1181.4,1082.5c-2.2-19.8-20.1-34.2-39.8-31.9c-19.7,2.2-34,20.2-31.8,40c2.2,19.8,20.1,34.2,39.8,31.9
					S1183.6,1102.3,1181.4,1082.5z M1148.3,1108.1c-12.5,1.3-23.9-7.4-25.4-19.3c-1.5-11.9,7.5-22.6,20.1-23.9
					c12.5-1.3,23.9,7.4,25.4,19.3C1169.8,1096.1,1160.8,1106.8,1148.3,1108.1z"/>
			</g>
		</g>
		<g>
			<g>
				<g>
					<path class="st17" d="M1398.1,1111.8c-0.4,3.4-3.4,5.8-6.7,5.4c-3.3-0.4-5.6-3.5-5.2-6.9c0-0.2,0.1-0.4,0.1-0.6
						c-2.4,0.1-4.7,0.5-6.9,1c0.1,0.2,0.2,0.4,0.3,0.6c1.3,3.2-0.2,6.8-3.2,8.2c-3,1.3-6.5-0.1-7.8-3.3c-0.1-0.2-0.1-0.4-0.2-0.6
						c-2,1.3-3.8,2.8-5.5,4.5c0.2,0.1,0.4,0.2,0.6,0.4c2.6,2.1,3.1,6,1.1,8.7s-5.7,3.3-8.4,1.2c-0.2-0.2-0.4-0.3-0.5-0.5
						c-1.1,2.2-2,4.4-2.7,6.8c0.3,0,0.5,0,0.8,0c3.3,0.4,5.6,3.5,5.2,6.9s-3.4,5.8-6.7,5.4c-0.3,0-0.5-0.1-0.8-0.2
						c0.1,2.5,0.4,5,1,7.3c0.2-0.2,0.5-0.3,0.8-0.4c3-1.3,6.5,0.1,7.8,3.3s-0.2,6.8-3.2,8.2c-0.3,0.1-0.6,0.2-0.8,0.3
						c1.3,2.1,2.8,4.1,4.4,5.9c0.1-0.3,0.3-0.6,0.5-0.8c2-2.7,5.7-3.3,8.4-1.2c2.6,2.1,3.1,6,1.1,8.7c-0.2,0.3-0.4,0.5-0.6,0.7
						c2.1,1.1,4.3,2.1,6.7,2.8c0-0.3,0-0.7,0-1c0.4-3.4,3.4-5.8,6.7-5.4c3.3,0.4,5.6,3.5,5.2,6.9c0,0.3-0.1,0.6-0.2,1
						c2.4-0.1,4.8-0.5,7.1-1.1c-0.2-0.3-0.3-0.6-0.5-0.9c-1.3-3.2,0.2-6.8,3.2-8.2c3-1.3,6.5,0.1,7.8,3.3c0.1,0.3,0.2,0.6,0.3,0.9
						c2-1.4,3.9-2.9,5.7-4.7c-0.3-0.1-0.5-0.3-0.8-0.5c-2.6-2.1-3.1-5.9-1.1-8.7c2-2.7,5.7-3.3,8.4-1.2c0.2,0.2,0.4,0.4,0.6,0.6
						c1.1-2.2,2-4.5,2.6-6.9c-0.3,0-0.6,0-0.8,0c-3.3-0.4-5.6-3.5-5.2-6.9c0.4-3.4,3.4-5.8,6.7-5.4c0.3,0,0.5,0.1,0.7,0.2
						c-0.1-2.5-0.4-4.9-1-7.3c-0.2,0.1-0.4,0.3-0.7,0.4c-3,1.3-6.5-0.1-7.8-3.3c-1.3-3.2,0.2-6.8,3.2-8.2c0.2-0.1,0.4-0.1,0.6-0.2
						c-1.3-2-2.7-4-4.3-5.7c-0.1,0.2-0.2,0.4-0.4,0.6c-2,2.7-5.7,3.3-8.4,1.2c-2.6-2.1-3.1-6-1.1-8.7c0.1-0.2,0.3-0.3,0.4-0.5
						c-2-1.1-4.2-2-6.5-2.7C1398.1,1111.3,1398.2,1111.5,1398.1,1111.8z M1412.1,1150.3c-1.7,13.9-13.9,23.8-27.2,22.1
						c-13.3-1.7-22.8-14.3-21.1-28.2c1.7-13.9,13.9-23.8,27.2-22.1C1404.3,1123.8,1413.8,1136.4,1412.1,1150.3z"/>
				</g>
				<path class="st17" d="M1413.6,1144.2c-1.5-14.7-14.3-25.3-28.5-23.6c-14.1,1.7-24.4,15-22.9,29.7c1.5,14.7,14.3,25.3,28.5,23.6
					C1404.9,1172.2,1415.1,1158.9,1413.6,1144.2z M1390,1165.2c-10,1.1-19.1-6.1-20.3-15.9s6.1-18.8,16.1-19.9s19.1,6.1,20.3,15.9
					C1407.3,1155.2,1400,1164.1,1390,1165.2z"/>
			</g>
		</g>
		<g>
			<g>
				<g>
					<path class="st17" d="M1292.8,1039.5c-0.9,7.1-7.3,12.1-14.4,11.3c-7.1-0.9-12.1-7.3-11.2-14.4c0.1-0.4,0.2-0.9,0.3-1.3
						c-5.1,0.2-10.1,0.9-14.9,2.1c0.2,0.4,0.5,0.8,0.7,1.3c2.8,6.6-0.3,14.2-6.8,17c-6.6,2.8-14.1-0.3-16.9-6.9
						c-0.2-0.4-0.3-0.9-0.4-1.3c-4.3,2.7-8.3,5.9-11.9,9.4c0.4,0.3,0.9,0.5,1.3,0.8c5.7,4.3,6.8,12.4,2.5,18.1s-12.4,6.8-18.1,2.5
						c-0.4-0.3-0.8-0.7-1.1-1.1c-2.3,4.5-4.3,9.2-5.7,14.2c0.6,0,1.1,0,1.7,0c7.1,0.9,12.1,7.3,11.2,14.4
						c-0.9,7.1-7.3,12.1-14.4,11.3c-0.6-0.1-1.1-0.2-1.7-0.4c0.2,5.2,0.9,10.4,2.1,15.3c0.5-0.3,1.1-0.7,1.7-0.9
						c6.6-2.8,14.1,0.3,16.9,6.9c2.8,6.6-0.3,14.2-6.8,17c-0.6,0.3-1.2,0.4-1.8,0.6c2.8,4.4,6,8.5,9.5,12.3c0.3-0.6,0.6-1.2,1.1-1.8
						c4.3-5.7,12.4-6.8,18-2.5c5.7,4.3,6.8,12.4,2.5,18.1c-0.4,0.6-0.9,1-1.4,1.5c4.6,2.4,9.4,4.4,14.5,5.8c0-0.7,0-1.4,0-2.1
						c0.9-7.1,7.3-12.1,14.4-11.3c7.1,0.9,12.1,7.3,11.2,14.4c-0.1,0.7-0.3,1.3-0.5,2c5.3-0.2,10.4-1,15.4-2.2
						c-0.4-0.6-0.7-1.2-1-1.9c-2.8-6.6,0.3-14.2,6.8-17c6.6-2.8,14.1,0.3,16.9,6.9c0.3,0.6,0.4,1.3,0.6,1.9
						c4.4-2.8,8.4-6.1,12.2-9.7c-0.6-0.3-1.2-0.6-1.7-1c-5.7-4.3-6.8-12.4-2.5-18.1c4.3-5.7,12.4-6.8,18-2.5
						c0.5,0.4,0.9,0.8,1.3,1.3c2.3-4.5,4.2-9.4,5.7-14.4c-0.6,0-1.2,0-1.8,0c-7.1-0.9-12.1-7.3-11.2-14.4
						c0.9-7.1,7.3-12.1,14.4-11.3c0.5,0.1,1.1,0.2,1.6,0.4c-0.2-5.2-1-10.3-2.2-15.2c-0.5,0.3-0.9,0.6-1.4,0.8
						c-6.6,2.8-14.1-0.3-16.9-6.9c-2.8-6.6,0.3-14.2,6.8-17c0.4-0.2,0.9-0.3,1.4-0.4c-2.7-4.3-5.9-8.3-9.4-11.9
						c-0.3,0.4-0.5,0.9-0.8,1.3c-4.3,5.7-12.4,6.8-18,2.5c-5.7-4.3-6.8-12.4-2.5-18.1c0.3-0.4,0.6-0.7,0.9-1
						c-4.4-2.3-9.1-4.2-14-5.6C1292.8,1038.6,1292.8,1039.1,1292.8,1039.5z M1319.5,1119.5c-3.3,26.9-27.7,46-54.5,42.7
						c-26.8-3.3-45.8-27.9-42.5-54.8c3.3-26.9,27.7-46,54.5-42.7C1303.7,1068.1,1322.8,1092.6,1319.5,1119.5z"/>
				</g>
				<path class="st30" d="M1330.2,1106.8c-3.7-32.9-33.2-56.6-65.9-52.9c-32.7,3.7-56.3,33.4-52.7,66.3
					c3.7,32.9,33.2,56.6,65.9,52.9C1310.3,1169.4,1333.9,1139.7,1330.2,1106.8z M1275.4,1153.5c-22,2.5-41.8-13.5-44.3-35.6
					c-2.5-22.1,13.4-42.1,35.4-44.5c22-2.5,41.8,13.5,44.3,35.6C1313.2,1131.1,1297.4,1151.1,1275.4,1153.5z"/>
			</g>
		</g>
	</g>
	<g>
		<path class="st31" d="M1520.9,735.7c-6.1-7.1-5.3-17.9,1.8-24.1c7.1-6.2,17.8-5.4,23.9,1.8"/>
		<ellipse class="st31" cx="1498.5" cy="783.3" rx="16.2" ry="16.3"/>
	</g>
	<g id="XMLID_146_">
		<path class="st26" d="M1110.8,886.8c-2.6,7-7.8,12.7-14.4,16.1c-12,6-24,4.8-33.2-0.7c-1.3,16.5-14.6,29.9-31.5,30.7
			c-5.8,0.3-11.4-1-16.3-3.5c-1.2,16.8-17.7,28.2-36.1,20.6l-19.7,28.6c-1.3,1.9-4.2,1-4.2-1.3l-0.5-37.9
			c-6.5,2.6-14.3,2.8-22.5-1.1c-4.5-2.1-8.3-5.7-10.6-10c-4.4-8.2-4.7-16.4-2.2-23.3c-9.7-8-16-20-16.7-33.6
			c-1-22,14.2-40.8,34.3-46.6c1.7-19.2,21.6-33.2,42.2-34.2c15-0.7,28.7,5.7,37.9,16.2c5.9-4.1,12.9-6.6,20.6-7
			c22.1-1.1,42.2,17,41.8,40.4C1102.1,839.9,1120,862.2,1110.8,886.8z"/>
		<path id="XMLID_159_" class="st31" d="M919.8,903.6c3.9-9.5,13-16.4,23.9-16.9"/>
		<path id="XMLID_158_" class="st31" d="M1028.1,867.7c18.3-0.9,33.9,13.3,34.7,31.7"/>
		<path id="XMLID_4_" class="st31" d="M1063.4,844.7c5.5-3.2,12-4.9,19-4.4"/>
		<path id="XMLID_155_" class="st31" d="M1019.4,842.7c-0.7-14.8,10.6-27.3,25.4-28"/>
		<path id="XMLID_154_" class="st31" d="M1047.1,895.2c-1.2,13-12.7,22.6-25.7,21.4"/>
		<path id="XMLID_153_" class="st31" d="M1082.5,854.6c11.1,3.9,16.9,16,13.1,27.2"/>
		<path id="XMLID_152_" class="st31" d="M953.8,923.5c-8.5,2.8-17.5-1.9-20.3-10.4"/>
		<path id="XMLID_151_" class="st31" d="M937.6,824.6c12.6-2.6,24.9-0.1,34.6,6.7"/>
		<path id="XMLID_150_" class="st31" d="M919,866.7c0.1-8.8,4.5-16.6,11-21.5"/>
		<path class="st31" d="M980.9,888.5c-5.1-6.6-5.6-16.5-1.2-23.7c4.4-7.1,13.4-11.1,21.6-9.4"/>
		<path class="st31" d="M1001.2,915.5c3.5-1.7,6-5.2,6.6-9c0.6-3.8-0.9-7.9-3.8-10.5"/>
	</g>
	<g>
		<g>
			<polygon class="st5" points="1237.9,715.9 1236.7,836.1 1211.7,836 1212.9,715.8 			"/>
			<polygon class="st17" points="1293.6,735.8 1292.6,836.4 1267.5,836.3 1268.6,735.6 			"/>
			<polygon class="st5" points="1324.3,750.9 1323.4,836.6 1348.5,836.7 1349.4,750.9 			"/>
			<polygon class="st17" points="1400.9,790.9 1400.4,837 1375.3,836.9 1375.8,790.7 			"/>
		</g>
		<line class="st32" x1="1410.9" y1="837.4" x2="1190.8" y2="836"/>
		<line class="st31" x1="1288.9" y1="770.4" x2="1288.9" y2="743"/>
		<line class="st31" x1="1232.2" y1="820.1" x2="1232.2" y2="785.5"/>
		<line class="st31" x1="1397.2" y1="814.9" x2="1397.2" y2="803.5"/>
		<path class="st31" d="M1344.2,786.7c0-1.6,0-3.3,0-4.9"/>
	</g>
	<path class="st20" d="M1702.9,1244.4c-0.9,4.4-1.3,8.9-0.9,13.4"/>
	<g>
		<polyline class="st13" points="1440.5,1067.8 1370.5,996.2 1145,996.2 1088.3,939.1 		"/>
		<polyline class="st13" points="1413.5,1092.1 1336.3,1014.5 1137,1014.5 1086.5,963.7 		"/>
		<line class="st13" x1="1486.8" y1="856.8" x2="1140.5" y2="856.8"/>
		<polyline class="st13" points="1487.2,969.6 1428.7,910.8 1150.9,910.8 		"/>
		<polyline class="st13" points="1462.1,1015.5 1422.6,975.8 1281.6,975.8 1250.6,944.7 		"/>
		<line class="st13" x1="1293.3" y1="943.3" x2="1407.4" y2="943.3"/>
		<line class="st13" x1="1385.4" y1="882.4" x2="1185.9" y2="882.4"/>
		<line class="st13" x1="1152.9" y1="957.1" x2="1225.8" y2="957.1"/>
		<path class="st5" d="M1140.5,846.5c5.3,0,9.6,4.3,9.6,9.7c0,5.3-4.3,9.7-9.6,9.7c-5.3,0-9.6-4.3-9.6-9.7
			C1130.9,850.8,1135.2,846.5,1140.5,846.5z"/>
		<path class="st5" d="M1486.8,846.5c5.3,0,9.6,4.3,9.6,9.7c0,5.3-4.3,9.7-9.6,9.7c-5.3,0-9.6-4.3-9.6-9.7
			C1477.2,850.8,1481.5,846.5,1486.8,846.5z"/>
		<ellipse class="st5" cx="1155.7" cy="958.5" rx="9.6" ry="9.7"/>
		<ellipse class="st5" cx="1293.3" cy="943.3" rx="9.6" ry="9.7"/>
		<path class="st5" d="M1254.7,933.6c5.3,0,9.6,4.3,9.6,9.7s-4.3,9.7-9.6,9.7c-5.3,0-9.6-4.3-9.6-9.7S1249.4,933.6,1254.7,933.6z"/>
		<ellipse class="st5" cx="1401.9" cy="941.9" rx="9.6" ry="9.7"/>
		<path class="st5" d="M1437.7,1053.9c5.3,0,9.6,4.3,9.6,9.7c0,5.3-4.3,9.7-9.6,9.7c-5.3,0-9.6-4.3-9.6-9.7
			C1428.1,1058.3,1432.4,1053.9,1437.7,1053.9z"/>
		<ellipse class="st5" cx="1412.9" cy="1091.8" rx="9.6" ry="9.7"/>
		<ellipse class="st5" cx="1458.3" cy="1009.7" rx="9.6" ry="9.7"/>
		<ellipse class="st5" cx="1217.6" cy="958.5" rx="9.6" ry="9.7"/>
		<path class="st5" d="M1150.9,901.1c5.3,0,9.6,4.3,9.6,9.7s-4.3,9.7-9.6,9.7c-5.3,0-9.6-4.3-9.6-9.7S1145.5,901.1,1150.9,901.1z"/>
		<path class="st5" d="M1086.5,954c5.3,0,9.6,4.3,9.6,9.7s-4.3,9.7-9.6,9.7c-5.3,0-9.6-4.3-9.6-9.7S1081.1,954,1086.5,954z"/>
		<path class="st5" d="M1088.9,928.8c5.3,0,9.6,4.3,9.6,9.7c0,5.3-4.3,9.7-9.6,9.7c-5.3,0-9.6-4.3-9.6-9.7
			C1079.3,933.1,1083.6,928.8,1088.9,928.8z"/>
		<ellipse class="st5" cx="1185.9" cy="882.4" rx="9.6" ry="9.7"/>
		<ellipse class="st5" cx="1385.4" cy="882.4" rx="9.6" ry="9.7"/>
		<ellipse class="st5" cx="1483.1" cy="966.8" rx="9.6" ry="9.7"/>
	</g>
	<g>
		<g>
			<g>
				<path class="st33" d="M1927.9,854.4h-101.9c-2.9,0-5.3,2.4-5.3,5.3l0,0c0,2.9,2.4,5.3,5.3,5.3h101.9c2.9,0,5.3-2.4,5.3-5.3l0,0
					C1933.2,856.8,1930.9,854.4,1927.9,854.4z"/>
				<path class="st33" d="M1765.6,859.7L1765.6,859.7c0,2.9,2.4,5.3,5.3,5.3h32.6c2.9,0,5.3-2.4,5.3-5.3l0,0c0-2.9-2.4-5.3-5.3-5.3
					h-32.6C1768,854.4,1765.6,856.8,1765.6,859.7z"/>
				<path class="st33" d="M1798.1,885.9L1798.1,885.9c0,2.9,2.4,5.3,5.3,5.3h92.7c2.9,0,5.3-2.4,5.3-5.3l0,0c0-2.9-2.4-5.3-5.3-5.3
					h-92.7C1800.5,880.6,1798.1,883,1798.1,885.9z"/>
				<path class="st33" d="M1783.9,880.6h-19.7c-2.9,0-5.3,2.4-5.3,5.3l0,0c0,2.9,2.4,5.3,5.3,5.3h19.7c2.9,0,5.3-2.4,5.3-5.3l0,0
					C1789.2,883,1786.8,880.6,1783.9,880.6z"/>
				<path class="st33" d="M1911,885.9L1911,885.9c0,2.9,2.4,5.3,5.3,5.3h11.7c2.9,0,5.3-2.4,5.3-5.3l0,0c0-2.9-2.4-5.3-5.3-5.3
					h-11.7C1913.3,880.6,1911,883,1911,885.9z"/>
				<path class="st33" d="M1947.8,883.8v4.2c0,1.8,1.4,3.2,3.2,3.2h46.7c2.9,0,5.3-2.4,5.3-5.3l0,0c0-2.9-2.4-5.3-5.3-5.3H1951
					C1949.2,880.6,1947.8,882,1947.8,883.8z"/>
				<path class="st33" d="M1881.4,905.1h-115.3c-2.9,0-5.3,2.4-5.3,5.3l0,0c0,2.9,2.4,5.3,5.3,5.3h115.3c2.9,0,5.3-2.4,5.3-5.3l0,0
					C1886.7,907.4,1884.4,905.1,1881.4,905.1z"/>
				<path class="st33" d="M1963.5,905.1h-53.8c-2.9,0-5.3,2.4-5.3,5.3l0,0c0,2.9,2.4,5.3,5.3,5.3h53.8c2.9,0,5.3-2.4,5.3-5.3l0,0
					C1968.8,907.4,1966.4,905.1,1963.5,905.1z"/>
				<path class="st33" d="M2003.1,931.3h-7.1c-2.9,0-5.3,2.4-5.3,5.3l0,0c0,2.9,2.4,5.3,5.3,5.3h7.1c2.9,0,5.3-2.4,5.3-5.3l0,0
					C2008.4,933.6,2006,931.3,2003.1,931.3z"/>
				<path class="st33" d="M1978.3,931.3H1909c-2.9,0-5.3,2.4-5.3,5.3l0,0c0,2.9,2.4,5.3,5.3,5.3h69.3c2.9,0,5.3-2.4,5.3-5.3l0,0
					C1983.6,933.6,1981.3,931.3,1978.3,931.3z"/>
				<path class="st33" d="M1887.1,931.3h-25.5c-2.9,0-5.3,2.4-5.3,5.3l0,0c0,2.9,2.4,5.3,5.3,5.3h25.5c2.9,0,5.3-2.4,5.3-5.3l0,0
					C1892.4,933.6,1890,931.3,1887.1,931.3z"/>
				<path class="st33" d="M1835.5,931.3h-26.2c-2.9,0-5.3,2.4-5.3,5.3l0,0c0,2.9,2.4,5.3,5.3,5.3h26.2c2.9,0,5.3-2.4,5.3-5.3l0,0
					C1840.8,933.6,1838.4,931.3,1835.5,931.3z"/>
				<path class="st33" d="M1780.3,931.3h-14.2c-2.9,0-5.3,2.4-5.3,5.3l0,0c0,2.9,2.4,5.3,5.3,5.3h14.2c2.9,0,5.3-2.4,5.3-5.3l0,0
					C1785.6,933.6,1783.2,931.3,1780.3,931.3z"/>
				<path class="st33" d="M1944.4,957.5h-9.9c-2.9,0-5.3,2.4-5.3,5.3l0,0c0,2.9,2.4,5.3,5.3,5.3h9.9c2.9,0,5.3-2.4,5.3-5.3l0,0
					C1949.7,959.8,1947.3,957.5,1944.4,957.5z"/>
				<path class="st33" d="M1902.9,957.5h-49.8c-2.9,0-5.3,2.4-5.3,5.3l0,0c0,2.9,2.4,5.3,5.3,5.3h49.8c2.9,0,5.3-2.4,5.3-5.3l0,0
					C1908.2,959.8,1905.8,957.5,1902.9,957.5z"/>
				<path class="st33" d="M1831.8,957.5h-38.9c-2.9,0-5.3,2.4-5.3,5.3l0,0c0,2.9,2.4,5.3,5.3,5.3h38.9c2.9,0,5.3-2.4,5.3-5.3l0,0
					C1837.1,959.8,1834.7,957.5,1831.8,957.5z"/>
				<path class="st33" d="M1880.1,778.8h-115.3c-2.9,0-5.3,2.4-5.3,5.3l0,0c0,2.9,2.4,5.3,5.3,5.3h115.3c2.9,0,5.3-2.4,5.3-5.3l0,0
					C1885.4,781.2,1883,778.8,1880.1,778.8z"/>
				<path class="st33" d="M1838,761.5L1838,761.5c0,2.9,2.4,5.3,5.3,5.3h14.1c2.9,0,5.3-2.4,5.3-5.3l0,0c0-2.9-2.4-5.3-5.3-5.3
					h-14.1C1840.3,756.2,1838,758.6,1838,761.5z"/>
				<path class="st33" d="M1873.5,761.5L1873.5,761.5c0,2.9,2.4,5.3,5.3,5.3h47.9c2.9,0,5.3-2.4,5.3-5.3l0,0c0-2.9-2.4-5.3-5.3-5.3
					h-47.9C1875.8,756.2,1873.5,758.6,1873.5,761.5z"/>
				<path class="st33" d="M1824.4,756.2h-59.7c-2.9,0-5.3,2.4-5.3,5.3l0,0c0,2.9,2.4,5.3,5.3,5.3h59.7c2.9,0,5.3-2.4,5.3-5.3l0,0
					C1829.7,758.6,1827.4,756.2,1824.4,756.2z"/>
				<path class="st33" d="M1885.8,805h-25.5c-2.9,0-5.3,2.4-5.3,5.3l0,0c0,2.9,2.4,5.3,5.3,5.3h25.5c2.9,0,5.3-2.4,5.3-5.3l0,0
					C1891,807.4,1888.7,805,1885.8,805z"/>
				<path class="st33" d="M1834.1,805h-26.2c-2.9,0-5.3,2.4-5.3,5.3l0,0c0,2.9,2.4,5.3,5.3,5.3h26.2c2.9,0,5.3-2.4,5.3-5.3l0,0
					C1839.4,807.4,1837,805,1834.1,805z"/>
				<path class="st33" d="M1782,805h-19.3c-2.9,0-5.3,2.4-5.3,5.3l0,0c0,2.9,2.4,5.3,5.3,5.3h19.3c2.9,0,5.3-2.4,5.3-5.3l0,0
					C1787.3,807.4,1784.9,805,1782,805z"/>
				<path class="st33" d="M1861.5,831.2h-29.7c-2.9,0-5.3,2.4-5.3,5.3l0,0c0,2.9,2.4,5.3,5.3,5.3h29.7c2.9,0,5.3-2.4,5.3-5.3l0,0
					C1866.8,833.6,1864.4,831.2,1861.5,831.2z"/>
				<path class="st33" d="M1943,831.2h-9.9c-2.9,0-5.3,2.4-5.3,5.3l0,0c0,2.9,2.4,5.3,5.3,5.3h9.9c2.9,0,5.3-2.4,5.3-5.3l0,0
					C1948.3,833.6,1946,831.2,1943,831.2z"/>
				<path class="st33" d="M1912.6,831.2h-21.9c-2.9,0-5.3,2.4-5.3,5.3l0,0c0,2.9,2.4,5.3,5.3,5.3h21.9c2.9,0,5.3-2.4,5.3-5.3l0,0
					C1917.9,833.6,1915.6,831.2,1912.6,831.2z"/>
				<path class="st33" d="M1801.6,831.2h-38.9c-2.9,0-5.3,2.4-5.3,5.3l0,0c0,2.9,2.4,5.3,5.3,5.3h38.9c2.9,0,5.3-2.4,5.3-5.3l0,0
					C1806.9,833.6,1804.5,831.2,1801.6,831.2z"/>
			</g>
			<g>
				<path class="st33" d="M1948.7,772.9c-0.9-1-0.9-2.6,0.1-3.6l8.8-8.2l-8.9-9.2c-1-1-0.9-2.6,0.1-3.6c1-1,2.6-0.9,3.5,0.1l12.5,13
					l-12.6,11.7c-0.5,0.4-1.1,0.7-1.7,0.7C1949.9,773.7,1949.2,773.4,1948.7,772.9z"/>
			</g>
			<g>
				<path class="st33" d="M1933.5,772.9c-0.9-1-0.9-2.6,0.1-3.6l8.8-8.2l-8.9-9.2c-1-1-0.9-2.6,0.1-3.6c1-1,2.6-0.9,3.5,0.1l12.5,13
					L1937,773c-0.5,0.4-1.1,0.7-1.7,0.7C1934.7,773.7,1934,773.4,1933.5,772.9z"/>
			</g>
			<g>
				<path class="st33" d="M1762.7,975.9l-12.6-11.7l12.5-13c1-1,2.6-1,3.5-0.1c1,1,1,2.6,0.1,3.6l-8.9,9.2l8.8,8.2
					c1,0.9,1.1,2.5,0.1,3.6c-0.5,0.5-1.2,0.8-1.8,0.8C1763.8,976.5,1763.2,976.3,1762.7,975.9z"/>
			</g>
			<g>
				<path class="st33" d="M1777.9,975.9l-12.6-11.7l12.5-13c1-1,2.6-1,3.5-0.1c1,1,1,2.6,0.1,3.6l-8.9,9.2l8.8,8.2
					c1,0.9,1.1,2.5,0.1,3.6c-0.5,0.5-1.2,0.8-1.8,0.8C1779,976.5,1778.4,976.3,1777.9,975.9z"/>
			</g>
		</g>
		<g>
			<path class="st26" d="M1549.7,984.8V871.5c0-8.5,6.9-15.5,15.5-15.5h3.1c8.5,0,15.5,6.9,15.5,15.5v113.3
				c0,8.5-6.9,15.5-15.5,15.5h-3.1C1556.7,1000.2,1549.7,993.3,1549.7,984.8z"/>
			<path class="st26" d="M1504.7,1086l43.7-81.3c3.6-6.6,11.8-9.1,18.4-5.5l3,1.7c6.6,3.6,9,11.9,5.5,18.5l-43.7,81.3
				c-3.6,6.6-11.8,9.1-18.4,5.5l-3-1.7C1503.6,1100.9,1501.1,1092.7,1504.7,1086z"/>
			<path class="st34" d="M1465.5,1126.3c9.5-18.8,29.4-27.8,44.4-20.2c15,7.7,19.5,29.1,10.1,47.9"/>
			<ellipse class="st18" cx="1565.6" cy="985.8" rx="5.5" ry="5.5"/>
			<path class="st18" d="M1560.9,1006.3c3,0,5.5,2.5,5.5,5.5s-2.5,5.5-5.5,5.5c-3,0-5.5-2.5-5.5-5.5
				C1555.4,1008.8,1557.9,1006.3,1560.9,1006.3z"/>
			<ellipse class="st31" cx="1564.8" cy="862.7" rx="34.1" ry="34.2"/>
			<ellipse cx="1564.8" cy="862.7" rx="23.2" ry="23.3"/>
			<path class="st31" d="M1465.5,1126.3c9.5-18.8,29.4-27.8,44.4-20.2c15,7.7,19.5,29.1,10.1,47.9"/>
		</g>
		<path class="st13" d="M1750.2,780.1h-154.4c-17.5,0-31.6,14.2-31.6,31.8V856"/>
		<path class="st13" d="M1577,930.5l65.6-66c10.2-10.2,24-16,38.4-16h69.2"/>
		<path class="st13" d="M1578,966.8l79-79.4c10.2-10.2,24-16,38.4-16h54.8"/>
	</g>
	<path class="st35" d="M1652.8,1299.3h-89c-3.6,0-6.3,3.2-5.7,6.8l20.1,121.7"/>
	<g>
		<rect x="967.9" y="1515.8" class="st26" width="346.6" height="319.9"/>
		<line class="st20" x1="1314.5" y1="1578.9" x2="967.9" y2="1578.9"/>
		<line class="st20" x1="1314.5" y1="1642" x2="967.9" y2="1642"/>
		<line class="st20" x1="1314.5" y1="1705.1" x2="967.9" y2="1705.1"/>
		<line class="st20" x1="1314.5" y1="1768.2" x2="967.9" y2="1768.2"/>
		<rect x="1224.6" y="1791.1" class="st5" width="65.6" height="18.6"/>
		<rect x="997.9" y="1791.1" class="st5" width="194" height="18.6"/>
		<rect x="1224.6" y="1729.5" class="st5" width="65.6" height="18.6"/>
		<rect x="997.9" y="1729.5" class="st5" width="194" height="18.6"/>
		<rect x="1224.6" y="1667.8" class="st5" width="65.6" height="18.6"/>
		<rect x="997.9" y="1667.8" class="st5" width="194" height="18.6"/>
		<rect x="1224.6" y="1606.2" class="st5" width="65.6" height="18.6"/>
		<rect x="997.9" y="1606.2" class="st5" width="194" height="18.6"/>
		<rect x="1224.6" y="1544.5" class="st5" width="65.6" height="18.6"/>
		<rect x="997.9" y="1544.5" class="st5" width="194" height="18.6"/>
	</g>
	<g>
		<ellipse class="st5" cx="1068.5" cy="999.7" rx="9.6" ry="9.7"/>
		<path class="st5" d="M996.9,973.3c5.3,0,9.6,4.3,9.6,9.7s-4.3,9.7-9.6,9.7c-5.3,0-9.6-4.3-9.6-9.7S991.6,973.3,996.9,973.3z"/>
		<path class="st5" d="M1019,960.3c5.3,0,9.6,4.3,9.6,9.7s-4.3,9.7-9.6,9.7c-5.3,0-9.6-4.3-9.6-9.7S1013.7,960.3,1019,960.3z"/>
		<ellipse class="st5" cx="1038.9" cy="949.3" rx="9.6" ry="9.7"/>
		<polyline class="st13" points="957.6,1742.2 901.4,1685.7 901.4,1542.7 994.5,1449.2 996.6,978.2 		"/>
		<polyline class="st13" points="1120.9,1501.8 1038.5,1419 1038.5,945.9 		"/>
		<line class="st13" x1="1018.5" y1="1490" x2="1018.5" y2="969.3"/>
		<polyline class="st13" points="1161.5,1499.7 1068.5,1406.1 1068.5,999.7 		"/>
		<ellipse class="st5" cx="1161.7" cy="1499.6" rx="9.6" ry="9.7"/>
		<path class="st5" d="M1017.4,1488.5c5.3,0,9.6,4.3,9.6,9.7c0,5.3-4.3,9.7-9.6,9.7c-5.3,0-9.6-4.3-9.6-9.7
			C1007.7,1492.8,1012,1488.5,1017.4,1488.5z"/>
		<ellipse class="st5" cx="959.4" cy="1744.8" rx="9.6" ry="9.7"/>
		<ellipse class="st5" cx="1120.9" cy="1499.6" rx="9.6" ry="9.7"/>
	</g>
</g>
</svg>
